<svg width="101" height="36" viewBox="0 0 101 36" fill="none" xmlns="http://www.w3.org/2000/svg">
<path d="M101 29.7979C101 32.8263 98.1432 35.2839 94.6239 35.2839H6.37939C2.85611 35.2839 0 32.8276 0 29.7979V5.48727C0 2.45891 2.85611 0 6.37939 0H94.6239C98.1439 0 101 2.45628 101 5.48727V29.7979Z" fill="#F1F1F2"/>
<path d="M100.073 29.8355C100.073 32.7249 97.3403 35.0666 93.9688 35.0666H7.51703C4.14612 35.0666 1.41455 32.7249 1.41455 29.8355V7.83624C1.41455 4.94745 4.14612 2.60376 7.51703 2.60376H93.9694C97.341 2.60376 100.074 4.94745 100.074 7.83624L100.073 29.8355Z" fill="white"/>
<path d="M99.7081 28.3449C99.7081 31.1876 97.0242 33.4892 93.7136 33.4892H7.7687C4.45609 33.4892 1.77686 31.185 1.77686 28.3449V7.14955C1.77686 4.30947 4.45874 2.00659 7.7687 2.00659H93.7109C97.0235 2.00659 99.7054 4.31079 99.7054 7.14955L99.7081 28.3449Z" fill="url(#paint0_linear_2820_768)"/>
<path d="M42.2153 10.9802H43.3673V12.9322C43.3673 14.3242 43.0153 16.0202 41.3033 17.1562C41.1433 16.9322 40.6793 16.5162 40.4393 16.3562C41.9753 15.3642 42.2153 14.0362 42.2153 12.9162V10.9802ZM46.1193 10.9802H47.2553V14.9162C47.2553 15.2682 47.3033 15.3322 47.5593 15.3322C47.6873 15.3322 48.2153 15.3322 48.3753 15.3322C48.6473 15.3322 48.7113 15.1242 48.7433 13.5882C48.9673 13.7642 49.4473 13.9402 49.7513 14.0202C49.6553 15.8922 49.3673 16.3882 48.5033 16.3882C48.2953 16.3882 47.5913 16.3882 47.3833 16.3882C46.4073 16.3882 46.1193 16.0682 46.1193 14.9322V10.9802ZM43.0793 18.5322C44.1833 21.2842 46.5673 23.3322 49.7833 24.1482C49.5113 24.4042 49.1593 24.8842 48.9993 25.1882C45.6713 24.2122 43.2873 22.0042 42.0073 18.8682L43.0793 18.5322ZM47.5593 17.4122H47.7993L48.0073 17.3642L48.7753 17.6682C47.6393 21.8602 44.6313 24.1642 41.1273 25.1882C40.9993 24.9002 40.6953 24.3882 40.4713 24.1322C43.7033 23.3162 46.5993 21.1562 47.5593 17.6042V17.4122ZM41.1753 17.4122H48.0233V18.5002H41.1753V17.4122ZM42.6953 10.9802H46.6953V12.0522H42.6953V10.9802ZM35.6393 15.3162H40.4073V16.2762H35.6393V15.3162ZM35.7193 11.0442H40.3753V12.0042H35.7193V11.0442ZM35.6393 17.4602H40.4073V18.4202H35.6393V17.4602ZM34.8873 13.1402H40.9673V14.1322H34.8873V13.1402ZM36.2153 19.6202H40.4073V24.2922H36.2153V23.2842H39.3513V20.6122H36.2153V19.6202ZM35.6233 19.6202H36.6633V25.0282H35.6233V19.6202ZM53.6553 15.3642H62.9833V16.5162H53.6553V15.3642ZM58.2633 19.1882H63.6553V20.3242H58.2633V19.1882ZM57.6233 15.9562H58.8713V24.0522L57.6233 23.8922V15.9562ZM53.8313 17.8922L55.0793 18.0202C54.6313 21.2522 53.6233 23.7002 51.8153 25.2682C51.6233 25.0602 51.1113 24.6442 50.8233 24.4682C52.6153 23.0762 53.4793 20.7882 53.8313 17.8922ZM54.5833 19.9562C55.7193 23.2202 58.2153 23.7802 61.4633 23.7802C62.0553 23.7802 64.8233 23.7802 65.6073 23.7642C65.4153 24.0522 65.2073 24.6282 65.1593 24.9802H61.3993C57.5913 24.9802 54.9833 24.2282 53.6073 20.3242L54.5833 19.9562ZM57.6073 10.4842H58.8713V13.0762H57.6073V10.4842ZM51.5913 12.3082H64.9673V15.7962H63.7353V13.4602H52.7753V15.7962H51.5913V12.3082Z" fill="white"/>
<defs>
<linearGradient id="paint0_linear_2820_768" x1="50.7425" y1="33.4892" x2="50.7425" y2="-28.8668" gradientUnits="userSpaceOnUse">
<stop stop-color="#F3F4F5"/>
<stop offset="0.003" stop-color="#F4C22B"/>
<stop offset="1" stop-color="#F4C22B" stop-opacity="0.431"/>
</linearGradient>
</defs>
</svg>
