<svg width="101" height="36" viewBox="0 0 101 36" fill="none" xmlns="http://www.w3.org/2000/svg">
<path d="M101 29.7979C101 32.8263 98.1432 35.2839 94.6239 35.2839H6.37939C2.85611 35.2839 0 32.8276 0 29.7979V5.48727C0 2.45891 2.85611 0 6.37939 0H94.6239C98.1439 0 101 2.45628 101 5.48727V29.7979Z" fill="#F1F1F2"/>
<path d="M100.073 29.8355C100.073 32.7249 97.3403 35.0666 93.9688 35.0666H7.51703C4.14612 35.0666 1.41455 32.7249 1.41455 29.8355V7.83624C1.41455 4.94745 4.14612 2.60376 7.51703 2.60376H93.9694C97.341 2.60376 100.074 4.94745 100.074 7.83624L100.073 29.8355Z" fill="white"/>
<path d="M99.7081 28.3449C99.7081 31.1876 97.0242 33.4892 93.7136 33.4892H7.7687C4.45609 33.4892 1.77686 31.185 1.77686 28.3449V7.14955C1.77686 4.30947 4.45874 2.00659 7.7687 2.00659H93.7109C97.0235 2.00659 99.7054 4.31079 99.7054 7.14955L99.7081 28.3449Z" fill="url(#paint0_linear_2821_1002)"/>
<path d="M43.6713 15.8762H49.6233V16.9962H43.6713V15.8762ZM35.2553 12.1482H42.3113V13.1722H35.2553V12.1482ZM35.0793 18.5002H42.3913V19.5402H35.0793V18.5002ZM35.0313 15.8122H42.5033V16.8362H35.0313V15.8122ZM46.6473 16.3242H47.8153V25.1082H46.6473V16.3242ZM38.2153 10.5322H39.3833V12.6762H38.2153V10.5322ZM38.2153 16.6442H39.3833V25.1722H38.2153V16.6442ZM43.0953 11.7802L44.5673 12.2282C44.5513 12.3562 44.4553 12.4202 44.2313 12.4522V17.3962C44.2313 19.7962 43.9433 23.0442 41.6873 25.2682C41.5433 24.9962 41.1113 24.5962 40.8233 24.4362C42.8713 22.4202 43.0953 19.6522 43.0953 17.3802V11.7802ZM48.4553 10.6602L49.4153 11.5402C47.9113 12.2122 45.6713 12.7562 43.7513 13.0922C43.6873 12.8362 43.5273 12.4202 43.3833 12.1802C45.1753 11.7962 47.2873 11.2362 48.4553 10.6602ZM39.2713 19.8442C39.7833 20.1962 41.5273 21.6202 41.9273 21.9882L41.2233 22.8842C40.7113 22.2922 39.2073 20.8842 38.6153 20.3882L39.2713 19.8442ZM36.2153 13.4602L37.1593 13.2522C37.4953 13.9562 37.7673 14.9002 37.8473 15.5082L36.8393 15.7802C36.7913 15.1562 36.5353 14.1962 36.2153 13.4602ZM40.3113 13.2202L41.3993 13.4602C41.0953 14.2602 40.7593 15.1562 40.4713 15.7482L39.5113 15.5242C39.7993 14.8842 40.1353 13.8922 40.3113 13.2202ZM38.2313 19.0282L39.0953 19.3642C38.2793 21.1402 36.8073 23.0282 35.5273 24.0202C35.3353 23.7482 34.9833 23.3642 34.7113 23.1722C36.0073 22.3242 37.4633 20.5962 38.2313 19.0282ZM50.9673 14.3882H55.2553V15.5242H50.9673V14.3882ZM52.6793 10.7082H53.8473V21.1722H52.6793V10.7082ZM50.7273 21.4442C51.9433 20.9962 53.7993 20.2282 55.5753 19.4762L55.8633 20.5642C54.2313 21.3002 52.5033 22.0682 51.1433 22.6442L50.7273 21.4442ZM56.9513 19.3642H64.0393V25.1562H62.8553V20.2762H58.1033V25.2042H56.9513V19.3642ZM57.5593 23.6522H63.6073V24.5962H57.5593V23.6522ZM57.5273 21.5242H63.5273V22.3882H57.5273V21.5242ZM59.9593 14.3562H60.8713V17.9722H59.9593V14.3562ZM57.1593 14.8362V17.5402H63.7513V14.8362H57.1593ZM56.1833 13.9082H64.7913V18.4522H56.1833V13.9082ZM57.7513 15.3962L58.5033 15.1882C58.8073 15.7642 59.0953 16.5322 59.1913 16.9962L58.4233 17.2522C58.3273 16.7722 58.0393 15.9882 57.7513 15.3962ZM62.1993 15.1722L63.0473 15.4442C62.7433 16.1002 62.4233 16.7882 62.1353 17.2522L61.4793 17.0122C61.7353 16.4842 62.0553 15.7002 62.1993 15.1722ZM59.1273 10.9002H62.3753V11.9402H59.1273V10.9002ZM57.7673 11.3322L58.8393 11.6522C58.1033 13.0922 56.9033 14.5162 55.7673 15.4282C55.6073 15.2202 55.2073 14.7882 54.9513 14.5962C56.0553 13.7802 57.1433 12.5802 57.7673 11.3322ZM61.3993 10.9002H62.5993C63.3673 12.2442 64.7433 13.6042 65.9433 14.3402C65.6873 14.5482 65.3353 14.9642 65.1433 15.2682C63.8953 14.3722 62.5353 12.9322 61.7193 11.5082H61.3993V10.9002Z" fill="white"/>
<defs>
<linearGradient id="paint0_linear_2821_1002" x1="50.7425" y1="33.4892" x2="50.7425" y2="-28.8668" gradientUnits="userSpaceOnUse">
<stop stop-color="#F3F4F5"/>
<stop offset="0.003" stop-color="#00C9B5"/>
<stop offset="1" stop-color="#00C9B5" stop-opacity="0.43"/>
</linearGradient>
</defs>
</svg>
