<svg width="101" height="36" viewBox="0 0 101 36" fill="none" xmlns="http://www.w3.org/2000/svg">
<path d="M101 29.7979C101 32.8263 98.1432 35.2839 94.6239 35.2839H6.37939C2.85611 35.2839 0 32.8276 0 29.7979V5.48727C0 2.45891 2.85611 0 6.37939 0H94.6239C98.1439 0 101 2.45628 101 5.48727V29.7979Z" fill="#F1F1F2"/>
<path d="M100.073 29.8353C100.073 32.7248 97.3403 35.0665 93.9688 35.0665H7.51703C4.14612 35.0665 1.41455 32.7248 1.41455 29.8353V7.83612C1.41455 4.94733 4.14612 2.60364 7.51703 2.60364H93.9694C97.341 2.60364 100.074 4.94733 100.074 7.83612L100.073 29.8353Z" fill="white"/>
<path d="M99.7081 28.3449C99.7081 31.1876 97.0242 33.4892 93.7136 33.4892H7.7687C4.45609 33.4892 1.77686 31.185 1.77686 28.3449V7.14955C1.77686 4.30947 4.45874 2.00659 7.7687 2.00659H93.7109C97.0235 2.00659 99.7054 4.31079 99.7054 7.14955L99.7081 28.3449Z" fill="url(#paint0_linear_2820_751)"/>
<path d="M12.014 17.442H18.958V18.31H12.014V17.442ZM11.748 19.836H19.252V20.732H11.748V19.836ZM16.41 17.722H17.362V23.868H16.41V17.722ZM13.54 17.764H14.45V20.312C14.45 21.166 14.114 23 12.532 24.064C12.392 23.868 12.07 23.574 11.832 23.434C13.246 22.566 13.54 21.082 13.54 20.312V17.764ZM10.278 13.788H14.212V14.544H10.278V13.788ZM16.732 13.788H20.694V14.544H16.732V13.788ZM20.288 11.842H21.324V22.762C21.324 23.392 21.184 23.728 20.764 23.91C20.344 24.092 19.644 24.106 18.58 24.106C18.538 23.826 18.398 23.336 18.244 23.042C19.014 23.07 19.77 23.07 19.994 23.056C20.218 23.056 20.288 22.972 20.288 22.762V11.842ZM10.362 11.842H14.856V16.56H10.362V15.762H13.862V12.654H10.362V11.842ZM20.792 11.842V12.654H17.096V15.776H20.792V16.574H16.088V11.842H20.792ZM9.732 11.842H10.768V24.134H9.732V11.842ZM29.892 22.552H34.778V23.504H29.892V22.552ZM29.346 18.45H35.324V24.078H34.288V19.416H30.354V24.134H29.346V18.45ZM28.394 16.098C30.046 16.014 32.65 15.874 35.142 15.706L35.128 16.644C32.762 16.826 30.256 17.022 28.52 17.134L28.394 16.098ZM33.028 13.844L33.868 13.41C34.806 14.572 35.772 16.14 36.15 17.176L35.226 17.68C34.89 16.63 33.952 15.034 33.028 13.844ZM31.124 11.24L32.272 11.478C31.698 13.186 30.9 15.328 30.242 16.658L29.346 16.406C29.976 15.048 30.732 12.808 31.124 11.24ZM23.102 14.138H27.722V15.132H23.102V14.138ZM25.23 11.24L26.238 11.352C25.664 14.152 24.768 17.932 24.11 20.27L23.242 19.794C23.872 17.666 24.74 13.9 25.23 11.24ZM23.802 19.374L24.39 18.632C25.958 19.514 27.82 20.858 28.66 21.894L28.016 22.748C27.19 21.698 25.37 20.284 23.802 19.374ZM27.316 14.138H27.498L27.68 14.11L28.31 14.236C27.932 19.654 26.42 22.622 23.844 24.162C23.69 23.91 23.41 23.532 23.186 23.322C25.51 22.09 26.98 19.108 27.316 14.362V14.138ZM45.544 11.24H46.594V16.742H45.544V11.24ZM43.724 22.454H48.722V23.42H43.724V22.454ZM42.296 13.228H49.94V14.194H42.296V13.228ZM42.744 16.294H49.632V17.26H42.744V16.294ZM43.192 18.786H49.24V24.078H48.218V19.738H44.172V24.106H43.192V18.786ZM39.23 11.254L40.168 11.604C39.636 12.64 38.964 13.886 38.418 14.642L37.69 14.334C38.222 13.522 38.866 12.178 39.23 11.254ZM40.924 12.85L41.834 13.242C40.854 14.81 39.482 16.826 38.418 18.03L37.746 17.68C38.824 16.434 40.154 14.334 40.924 12.85ZM37.018 14.194L37.55 13.494C38.334 14.152 39.216 15.076 39.594 15.692L39.034 16.49C38.656 15.832 37.774 14.866 37.018 14.194ZM40.476 16.098L41.26 15.762C41.848 16.658 42.45 17.862 42.66 18.632L41.82 19.024C41.61 18.24 41.05 17.022 40.476 16.098ZM36.99 17.512C38.25 17.47 40.07 17.4 41.89 17.316L41.876 18.17C40.14 18.282 38.376 18.394 37.074 18.45L36.99 17.512ZM40.826 19.444L41.624 19.192C42.03 20.046 42.422 21.152 42.576 21.88L41.722 22.174C41.596 21.446 41.218 20.312 40.826 19.444ZM37.76 19.248L38.67 19.416C38.474 20.732 38.124 22.09 37.676 22.986C37.494 22.874 37.074 22.678 36.85 22.58C37.312 21.726 37.592 20.48 37.76 19.248ZM39.37 17.918H40.322V24.162H39.37V17.918ZM53.258 11.268H54.168V24.134H53.258V11.268ZM51.424 13.914H55.68V14.852H52.236V21.25H51.424V13.914ZM55.246 13.914H56.058V20.088C56.058 20.466 56.002 20.76 55.764 20.928C55.512 21.096 55.19 21.124 54.7 21.124C54.686 20.858 54.546 20.452 54.42 20.2C54.756 20.214 55.022 20.214 55.134 20.214C55.218 20.2 55.246 20.172 55.246 20.06V13.914ZM57.724 11.856H63.254V12.724H57.724V11.856ZM57.738 13.802H62.806V14.628H57.738V13.802ZM57.738 15.734H62.806V16.56H57.738V15.734ZM56.226 17.652H63.87V18.548H56.226V17.652ZM55.932 23C57.178 22.832 59.054 22.524 60.874 22.23L60.944 23.112C59.236 23.42 57.472 23.728 56.156 23.966L55.932 23ZM60.272 17.932C60.79 20.466 61.98 22.426 64.136 23.224C63.912 23.434 63.59 23.854 63.45 24.134C61.182 23.14 59.978 20.984 59.404 18.072L60.272 17.932ZM63.128 18.87L63.842 19.5C63.086 20.2 62.05 20.914 61.28 21.404L60.678 20.802C61.42 20.312 62.512 19.486 63.128 18.87ZM57.29 11.856H58.284V18.1H57.29V11.856ZM57.276 18.058H58.27V23.07L57.276 23.196V18.058ZM71.318 13.592H77.954V14.6H70.828L71.318 13.592ZM73.068 16.63H77.632V17.596H73.068V16.63ZM73.054 19.71H77.828V20.704H73.054V19.71ZM72.536 13.914H73.614V24.12H72.536V13.914ZM71.85 11.408L72.872 11.674C72.074 13.9 70.856 16.098 69.568 17.54C69.414 17.358 68.994 16.98 68.756 16.812C70.03 15.51 71.164 13.466 71.85 11.408ZM68.49 11.296L69.498 11.618C68.574 13.984 67.132 16.378 65.606 17.946C65.508 17.694 65.186 17.134 64.99 16.882C66.39 15.524 67.692 13.424 68.49 11.296ZM66.992 14.908L68.028 13.858L68.056 13.872V24.106H66.992V14.908ZM79.382 19.892H91.646V20.774H79.382V19.892ZM79.438 13.746H91.59V14.642H79.438V13.746ZM79.998 16.14H91.086V17.008H79.998V16.14ZM80.712 18.03H90.4V18.842H80.712V18.03ZM84.954 16.546H85.99V24.134H84.954V16.546ZM83.666 11.24H84.66V14.166H83.666V11.24ZM86.312 11.24H87.32V14.124H86.312V11.24ZM84.618 20.242L85.458 20.634C84.156 22.09 81.79 23.308 79.704 23.896C79.55 23.63 79.242 23.224 79.018 23C81.09 22.538 83.428 21.46 84.618 20.242ZM86.326 20.214C87.516 21.474 89.868 22.552 91.996 23C91.758 23.224 91.436 23.644 91.282 23.938C89.154 23.35 86.816 22.076 85.5 20.564L86.326 20.214ZM89.56 11.408L90.638 11.702C90.232 12.472 89.728 13.298 89.336 13.844L88.482 13.564C88.86 12.976 89.322 12.052 89.56 11.408ZM87.684 14.376L88.776 14.642C88.426 15.272 88.062 15.916 87.754 16.364L86.872 16.098C87.152 15.608 87.516 14.88 87.684 14.376ZM80.572 11.702L81.468 11.38C81.944 12.01 82.462 12.892 82.658 13.466L81.72 13.816C81.524 13.256 81.02 12.36 80.572 11.702ZM82.392 14.74L83.386 14.544C83.708 15.006 84.03 15.636 84.156 16.056L83.12 16.28C83.008 15.86 82.7 15.202 82.392 14.74Z" fill="white"/>
<defs>
<linearGradient id="paint0_linear_2820_751" x1="50.7425" y1="33.4892" x2="50.7425" y2="-28.8668" gradientUnits="userSpaceOnUse">
<stop stop-color="#F3F4F5"/>
<stop offset="0.003" stop-color="#F4C22B"/>
<stop offset="1" stop-color="#F4C22B" stop-opacity="0.431"/>
</linearGradient>
</defs>
</svg>
