<svg width="176" height="102" viewBox="0 0 176 102" fill="none" xmlns="http://www.w3.org/2000/svg">
<path d="M175.096 90.5466C175.061 93.4783 173.876 96.2758 171.802 98.324C169.728 100.372 166.934 101.503 164.035 101.468H11.0606C8.16208 101.503 5.36854 100.372 3.29441 98.3236C1.22027 96.2755 0.0352997 93.4782 0 90.5466V10.9253C0.0345339 7.99324 1.21921 5.19517 3.29343 3.14647C5.36765 1.09777 8.16158 -0.0337728 11.0606 0.000785342H164.043C165.478 -0.0165201 166.903 0.252329 168.236 0.79199C169.569 1.33165 170.783 2.13156 171.81 3.14602C172.837 4.16047 173.657 5.36964 174.222 6.70441C174.787 8.03919 175.086 9.47342 175.103 10.9253L175.096 90.5466Z" fill="#F1F1F2"/>
<path d="M173.284 90.6216C173.25 93.4174 172.12 96.0852 170.141 98.0381C168.163 99.991 165.498 101.069 162.734 101.035H13.3144C10.5505 101.069 7.88663 99.9904 5.90876 98.0375C3.93089 96.0845 2.80096 93.417 2.76758 90.6216V15.6C2.80096 12.8043 3.93079 10.1365 5.90858 8.18314C7.88637 6.22975 10.5502 5.15076 13.3144 5.18335H162.734C165.499 5.15036 168.163 6.22912 170.141 8.18251C172.12 10.1359 173.25 12.8039 173.284 15.6V90.6216Z" fill="white"/>
<path d="M172.571 90.2801C172.556 91.6399 172.277 92.9836 171.749 94.2342C171.22 95.4849 170.454 96.6181 169.493 97.5691C168.532 98.5201 167.395 99.2704 166.147 99.777C164.899 100.284 163.565 100.537 162.22 100.522H13.8297C12.4854 100.536 11.1514 100.283 9.90386 99.7764C8.65636 99.2697 7.51984 98.5194 6.55909 97.5684C5.59834 96.6173 4.83226 95.4841 4.30458 94.2336C3.7769 92.9831 3.4979 91.6397 3.48364 90.2801V16.8613C3.5132 14.116 4.61983 11.495 6.56007 9.57493C8.50031 7.65483 11.1153 6.59293 13.8297 6.62276H162.22C164.935 6.59253 167.551 7.65424 169.492 9.5743C171.433 11.4944 172.54 14.1155 172.571 16.8613V90.2801Z" fill="url(#paint0_linear_2820_325)"/>
<path d="M128.528 67.6525L144.027 57.0548C144.789 56.5347 145.414 55.8332 145.846 55.0119C146.277 54.1907 146.503 53.2748 146.503 52.3447C146.503 51.4146 146.277 50.4987 145.846 49.6775C145.414 48.8562 144.789 48.1547 144.027 47.6346L128.528 37.0369C127.676 36.4503 126.682 36.1089 125.653 36.0489C124.624 35.9888 123.599 36.2126 122.686 36.6962C121.773 37.1798 121.007 37.9051 120.469 38.7947C119.932 39.6842 119.644 40.7047 119.635 41.747V62.9424C119.644 63.9848 119.932 65.0052 120.469 65.8948C121.007 66.7843 121.773 67.5096 122.686 67.9932C123.599 68.4768 124.624 68.7006 125.653 68.6406C126.682 68.5806 127.676 68.2391 128.528 67.6525Z" fill="#404041"/>
<path d="M52.5881 52.7928H63.1208V54.3552H52.5881V52.7928ZM52.5881 57.2106H63.1208V58.8H52.5881V57.2106ZM52.615 61.6554H64.3869V63.3794H52.615V61.6554ZM49.5441 42.5295H64.2522V47.1359H62.4474V44.2804H51.2951V47.1359H49.5441V42.5295ZM56.979 49.5872H58.8646V62.5713H56.979V49.5872ZM53.3154 48.2942H63.5787V50.0452H53.3154V64.5377H51.4028V50.126L53.1538 48.2942H53.3154ZM55.8476 39.7549L57.7871 40.132C56.2516 45.6004 53.5848 50.0721 49.9482 52.9544C49.6519 52.5773 48.9246 51.8231 48.4935 51.4729C52.0493 48.8868 54.5276 44.7115 55.8476 39.7549ZM58.6491 45.0886L60.5617 45.5735C59.9152 46.9742 59.1879 48.4828 58.6222 49.5064L57.0598 49.0485C57.6255 47.9709 58.3259 46.2739 58.6491 45.0886ZM39.9542 41.5867H49.4633V43.4454H39.9542V41.5867ZM42.675 49.4525H48.7629V61.2513H42.675V59.4734H46.985V51.2574H42.675V49.4525ZM43.1329 42.4756L45.0724 42.7719C44.2374 48.4289 42.8366 53.7356 40.3314 57.2645C40.1159 56.8066 39.5502 55.8099 39.173 55.3519C41.3281 52.3079 42.4864 47.5399 43.1329 42.4756ZM41.8399 49.4525H43.537V63.3525H41.8399V49.4525ZM82.1928 41.6405H84.0515C83.4858 46.0045 82.1659 50.3684 77.4517 52.712C77.2362 52.281 76.6705 51.6075 76.2395 51.2843C80.6304 49.264 81.7349 45.331 82.1928 41.6405ZM77.2362 45.4927L78.2329 44.0919C81.0345 45.0347 84.4017 46.7049 86.1796 47.944L85.2098 49.5333C83.405 48.2134 80.0378 46.4355 77.2362 45.4927ZM88.5501 40.9132H90.4627C90.4627 40.9132 90.4627 41.5059 90.4358 41.7752C90.1664 48.1326 89.897 50.53 89.2236 51.3112C88.7926 51.8231 88.3346 52.0116 87.6073 52.0924C86.9608 52.1463 85.6947 52.1194 84.4286 52.0655C84.4017 51.4998 84.2131 50.7186 83.9168 50.2337C85.156 50.3415 86.2874 50.3415 86.7184 50.3415C87.1494 50.3684 87.3918 50.2876 87.5804 50.0721C88.0653 49.5064 88.3346 47.3514 88.5501 41.2634V40.9132ZM80.2802 55.2711H82.1659V61.7631C82.1659 62.4366 82.2736 62.5443 83.0279 62.5443C83.3781 62.5443 85.129 62.5443 85.56 62.5443C86.2874 62.5443 86.3951 62.1672 86.4759 59.4734C86.8531 59.7967 87.6612 60.066 88.1999 60.2277C87.9844 63.5141 87.4726 64.3492 85.7755 64.3492C85.3445 64.3492 83.2164 64.3492 82.7854 64.3492C80.7382 64.3492 80.2802 63.7835 80.2802 61.7901V55.2711ZM77.7211 56.187L79.3643 56.5911C79.068 58.9885 78.5023 61.6015 77.0746 63.11L75.5661 62.1133C76.8591 60.7934 77.4517 58.4228 77.7211 56.187ZM80.7382 52.7928L81.9234 51.6075C83.7013 52.5504 85.7755 54.005 86.7722 55.1364L85.5062 56.5102C84.5364 55.3788 82.4891 53.8165 80.7382 52.7928ZM87.0147 56.3755L88.6848 55.7021C90.1395 57.6686 91.3517 60.3085 91.7557 62.1402L89.9509 62.8945C89.6007 61.0627 88.4154 58.342 87.0147 56.3755ZM77.4787 40.9132H89.3852V42.6642H77.4787V40.9132ZM67.7272 47.9171H75.3775V49.5333H67.7272V47.9171ZM67.8349 40.7247H75.2698V42.3409H67.8349V40.7247ZM67.7272 51.5267H75.3775V53.143H67.7272V51.5267ZM66.515 44.2535H76.1318V45.9237H66.515V44.2535ZM68.6161 55.1633H75.3775V63.0292H68.6161V61.3321H73.6266V56.8335H68.6161V55.1633ZM67.7002 55.1633H69.4243V64.2683H67.7002V55.1633Z" fill="black"/>
<defs>
<linearGradient id="paint0_linear_2820_325" x1="88.0271" y1="100.522" x2="88.0271" y2="6.62213" gradientUnits="userSpaceOnUse">
<stop offset="0.003" stop-color="#F3F4F5"/>
<stop offset="1" stop-color="#C8CACC"/>
</linearGradient>
</defs>
</svg>
