<svg width="91" height="84" viewBox="0 0 91 84" fill="none" xmlns="http://www.w3.org/2000/svg">
<path d="M90 8.67666C90 3.87681 86.1031 0 81.2783 0H8.72165C3.89691 0 0 3.87681 0 8.67666V74.8285C0 79.6283 3.89691 83.5052 8.72165 83.5052H81.3402C86.1649 83.5052 90.0619 79.6283 90.0619 74.8285V8.67666H90ZM75.9588 78.4592H16.3299C11.5052 78.4592 7.60825 74.5208 7.60825 69.721V13.7842C7.60825 8.98434 11.5052 5.10754 16.3299 5.046H75.9588C80.7835 5.046 84.6804 8.98434 84.6804 13.7842V69.721C84.6804 74.5208 80.7835 78.3976 75.9588 78.4592Z" fill="url(#paint0_linear_2821_960)"/>
<path d="M84.6187 69.721V13.7842C84.6187 8.98439 80.7218 5.10758 75.8971 5.04605H16.33C11.5053 5.04605 7.6084 8.98439 7.6084 13.7842V69.721C7.6084 74.5209 11.5053 78.3977 16.33 78.4592H75.9589C80.7837 78.3977 84.6806 74.5209 84.6187 69.721ZM70.8249 73.6594H23.8146C18.9898 73.5978 15.0929 69.6595 15.0929 64.8596V18.7072C15.0311 13.9073 18.928 9.90744 23.8146 9.90744H70.763C75.5878 9.96897 79.4847 13.9073 79.4847 18.7072V64.8596C79.5465 69.6595 75.6496 73.5978 70.8249 73.6594Z" fill="url(#paint1_linear_2821_960)"/>
<path d="M84.6187 69.721V13.7842C84.6187 8.98439 80.7218 5.10758 75.8971 5.04605H16.33C11.5053 5.04605 7.6084 8.98439 7.6084 13.7842V69.721C7.6084 74.5209 11.5053 78.3977 16.33 78.4592H75.9589C80.7837 78.3977 84.6806 74.5209 84.6187 69.721ZM70.8249 73.6594H23.8146C18.9898 73.5978 15.0929 69.6595 15.0929 64.8596V18.7072C15.0311 13.9073 18.928 9.90744 23.8146 9.90744H70.763C75.5878 9.96897 79.4847 13.9073 79.4847 18.7072V64.8596C79.5465 69.6595 75.6496 73.5978 70.8249 73.6594Z" fill="url(#paint2_linear_2821_960)"/>
<path d="M79.4843 64.798V18.6456C79.5461 13.8457 75.6492 9.84586 70.7626 9.84586H23.8142C18.9894 9.90739 15.0925 13.8457 15.0925 18.6456V64.798C15.0307 69.5979 18.9276 73.5978 23.8142 73.5978H70.7626C75.6492 73.5978 79.5461 69.6594 79.4843 64.798Z" fill="#F2F2F2"/>
<path d="M31.672 32.952H39.432V33.928H31.672V32.952ZM34.952 31.56H36.12V33.416H34.952V31.56ZM33.4 43.192C34.408 43.144 35.736 43.064 37.176 42.968L37.192 43.784C35.848 43.88 34.568 43.976 33.496 44.056L33.4 43.192ZM38.056 40.12H39.08V45.128C39.08 45.656 38.984 45.944 38.584 46.104C38.2 46.264 37.592 46.264 36.616 46.264C36.568 46.008 36.424 45.592 36.28 45.336C36.984 45.368 37.624 45.352 37.8 45.352C37.992 45.336 38.056 45.288 38.056 45.112V40.12ZM36.072 41.88L36.776 41.672C37.224 42.52 37.672 43.624 37.8 44.312L37.048 44.552C36.92 43.848 36.52 42.728 36.072 41.88ZM33.752 35.416L34.264 34.872C35.4 35.464 36.76 36.392 37.416 37.048L36.888 37.704C36.232 37.016 34.888 36.056 33.752 35.416ZM35.016 38.632L36.056 38.808C35.736 40.424 35.304 42.52 34.936 43.736L34.104 43.576C34.456 42.312 34.84 40.12 35.016 38.632ZM32.008 40.12H38.488V41.032H33.016V46.296H32.008V40.12ZM32.44 34.6H33.336V38.152H37.72V34.6H38.648V39.032H32.44V34.6ZM36.232 34.344L37.08 34.568C36.456 35.96 35.368 37.24 34.264 38.072C34.136 37.928 33.784 37.656 33.576 37.528C34.68 36.76 35.688 35.624 36.232 34.344ZM40.616 37.864H46.072V38.904H40.616V37.864ZM40.616 41.08H46.072V42.136H40.616V41.08ZM40.648 44.344H46.392V45.464H40.648V44.344ZM41.208 31.576L42.296 31.816C41.624 34.28 40.6 36.76 39.448 38.376C39.256 38.2 38.808 37.832 38.536 37.64C39.688 36.152 40.632 33.848 41.208 31.576ZM43.992 31.736L45.144 32.008C44.744 33.128 44.28 34.44 43.864 35.272L42.92 35.016C43.304 34.136 43.784 32.712 43.992 31.736ZM41.24 34.616H46.216V35.704H41.24V46.312H40.136V35.608L41.064 34.616H41.24ZM43.112 35.112H44.152V44.92H43.112V35.112ZM51.016 38.648H58.952V39.64H51.016V38.648ZM50.712 41.384H59.288V42.408H50.712V41.384ZM56.04 38.968H57.128V45.992H56.04V38.968ZM52.76 39.016H53.8V41.928C53.8 42.904 53.416 45 51.608 46.216C51.448 45.992 51.08 45.656 50.808 45.496C52.424 44.504 52.76 42.808 52.76 41.928V39.016ZM49.032 34.472H53.528V35.336H49.032V34.472ZM56.408 34.472H60.936V35.336H56.408V34.472ZM60.472 32.248H61.656V44.728C61.656 45.448 61.496 45.832 61.016 46.04C60.536 46.248 59.736 46.264 58.52 46.264C58.472 45.944 58.312 45.384 58.136 45.048C59.016 45.08 59.88 45.08 60.136 45.064C60.392 45.064 60.472 44.968 60.472 44.728V32.248ZM49.128 32.248H54.264V37.64H49.128V36.728H53.128V33.176H49.128V32.248ZM61.048 32.248V33.176H56.824V36.744H61.048V37.656H55.672V32.248H61.048ZM48.408 32.248H49.592V46.296H48.408V32.248Z" fill="#404041"/>
<defs>
<linearGradient id="paint0_linear_2821_960" x1="67.0544" y1="11.9037" x2="8.7785" y2="91.5577" gradientUnits="userSpaceOnUse">
<stop stop-color="#00C7B4" stop-opacity="0.416"/>
<stop offset="1" stop-color="#00C7B4"/>
</linearGradient>
<linearGradient id="paint1_linear_2821_960" x1="67.8032" y1="12.441" x2="9.52732" y2="92.095" gradientUnits="userSpaceOnUse">
<stop stop-color="#00C7B4" stop-opacity="0.416"/>
<stop offset="1" stop-color="#00C7B4"/>
</linearGradient>
<linearGradient id="paint2_linear_2821_960" x1="61.7819" y1="-9.12944" x2="30.7655" y2="92.8466" gradientUnits="userSpaceOnUse">
<stop stop-color="#FEFEFE"/>
<stop offset="1" stop-color="#CDCBCC"/>
</linearGradient>
</defs>
</svg>
