<svg width="213" height="219" viewBox="0 0 213 219" fill="none" xmlns="http://www.w3.org/2000/svg">
<path d="M199.684 210.707L160.813 192.091L178.944 168.897L199.684 210.707Z" fill="url(#paint0_radial_17_1692)"/>
<path d="M105.248 210.496C163.375 210.496 210.496 163.375 210.496 105.248C210.496 47.1211 163.375 0 105.248 0C47.1211 0 0 47.1211 0 105.248C0 163.375 47.1211 210.496 105.248 210.496Z" fill="url(#paint1_radial_17_1692)"/>
<path d="M70.1719 97.0625H51.5781C48.4974 97.0625 46 99.5599 46 102.641V158.422C46 161.503 48.4974 164 51.5781 164H70.1719C73.2526 164 75.75 161.503 75.75 158.422V102.641C75.75 99.5599 73.2526 97.0625 70.1719 97.0625ZM60.875 154.703C57.7943 154.703 55.2969 152.206 55.2969 149.125C55.2969 146.044 57.7943 143.547 60.875 143.547C63.9558 143.547 66.4531 146.044 66.4531 149.125C66.4531 152.206 63.9558 154.703 60.875 154.703ZM135.25 63.9312C135.25 73.7896 129.214 79.3194 127.516 85.9062H151.158C158.921 85.9062 164.964 92.355 165 99.4095C165.019 103.579 163.246 108.067 160.482 110.844L160.456 110.87C162.742 116.294 162.371 123.894 158.293 129.34C160.31 135.358 158.277 142.752 154.485 146.715C155.484 150.805 155.007 154.286 153.056 157.088C148.313 163.904 136.555 164 126.613 164L125.952 164C114.729 163.996 105.544 159.91 98.1634 156.626C94.4546 154.976 89.6054 152.934 85.9262 152.866C84.4061 152.838 83.1875 151.598 83.1875 150.077V100.393C83.1875 99.6489 83.4855 98.9351 84.0145 98.4122C93.2216 89.3143 97.1807 79.682 104.727 72.1227C108.168 68.6754 109.419 63.4682 110.629 58.4326C111.663 54.1326 113.825 45 118.516 45C124.094 45 135.25 46.8594 135.25 63.9312Z" fill="white"/>
<defs>
<radialGradient id="paint0_radial_17_1692" cx="0" cy="0" r="1" gradientUnits="userSpaceOnUse" gradientTransform="translate(186.458 193.455) rotate(128.016) scale(14.7199 21.0447)">
<stop stop-color="#4FB7AD"/>
<stop offset="1" stop-color="#0DCCB9"/>
</radialGradient>
<radialGradient id="paint1_radial_17_1692" cx="0" cy="0" r="1" gradientUnits="userSpaceOnUse" gradientTransform="translate(105.248 105.248) scale(105.248)">
<stop stop-color="#85E5DC"/>
<stop offset="1" stop-color="#00C9B5"/>
</radialGradient>
</defs>
</svg>
