<svg width="101" height="36" viewBox="0 0 101 36" fill="none" xmlns="http://www.w3.org/2000/svg">
<path d="M101 29.7979C101 32.8263 98.1432 35.2839 94.6239 35.2839H6.37939C2.85611 35.2839 0 32.8276 0 29.7979V5.48727C0 2.45891 2.85611 0 6.37939 0H94.6239C98.1439 0 101 2.45628 101 5.48727V29.7979Z" fill="#F1F1F2"/>
<path d="M100.073 29.8355C100.073 32.7249 97.3403 35.0666 93.9688 35.0666H7.51703C4.14612 35.0666 1.41455 32.7249 1.41455 29.8355V7.83624C1.41455 4.94745 4.14612 2.60376 7.51703 2.60376H93.9694C97.341 2.60376 100.074 4.94745 100.074 7.83624L100.073 29.8355Z" fill="white"/>
<path d="M99.7081 28.3449C99.7081 31.1876 97.0242 33.4892 93.7136 33.4892H7.7687C4.45609 33.4892 1.77686 31.185 1.77686 28.3449V7.14955C1.77686 4.30947 4.45874 2.00659 7.7687 2.00659H93.7109C97.0235 2.00659 99.7054 4.31079 99.7054 7.14955L99.7081 28.3449Z" fill="url(#paint0_linear_2859_71)"/>
<path d="M38.9993 20.4362V21.7642H45.4793V20.4362H38.9993ZM38.9993 18.2762V19.5882H45.4793V18.2762H38.9993ZM37.8153 17.4122H46.7113V22.6282H37.8153V17.4122ZM35.1913 12.5162H49.3833V13.5722H35.1913V12.5162ZM41.6233 10.4682H42.8233V16.9162H41.6233V10.4682ZM40.9353 12.8202L41.9433 13.2202C40.5033 15.2842 37.9753 17.1562 35.6233 18.0842C35.4473 17.7962 35.0953 17.3642 34.8393 17.1242C37.1433 16.3402 39.6553 14.6122 40.9353 12.8202ZM43.4793 12.8362C44.7753 14.5802 47.3353 16.2282 49.7033 16.9802C49.4313 17.2042 49.0793 17.6522 48.9033 17.9722C46.5193 17.0762 43.9593 15.2362 42.5033 13.2202L43.4793 12.8362ZM35.4473 23.6042H49.1593V24.6762H35.4473V23.6042ZM58.2313 18.3242H61.7993V19.2522H58.2313V18.3242ZM58.3433 13.0282H64.5193V14.1482H58.3433V13.0282ZM58.3113 15.8762H62.3913V21.8282H58.3113V20.8522H61.3353V16.8362H58.3113V15.8762ZM57.6553 15.8762H58.7113V22.7562H57.6553V15.8762ZM64.1033 13.0282H65.2553C65.2553 13.0282 65.2553 13.4922 65.2553 13.6682C65.1113 21.2362 64.9673 23.7322 64.3913 24.5002C64.0553 24.9642 63.7033 25.0922 63.1433 25.1562C62.5993 25.2042 61.6713 25.1882 60.7753 25.1242C60.7433 24.8042 60.5993 24.3082 60.3913 24.0042C61.4153 24.0682 62.3273 24.0842 62.7113 24.0842C63.0153 24.0842 63.1753 24.0362 63.3513 23.8282C63.8153 23.2842 63.9753 20.5962 64.1033 13.3002V13.0282ZM58.8073 10.4522L60.0073 10.7402C59.3513 13.0762 58.2793 15.3162 57.0313 16.7882C56.8073 16.5802 56.2953 16.1802 56.0073 15.9882C57.2553 14.6602 58.2313 12.5802 58.8073 10.4522ZM51.6073 15.3162H56.1513V16.2762H51.6073V15.3162ZM51.6713 11.0442H56.0873V12.0042H51.6713V11.0442ZM51.6073 17.4602H56.1513V18.4202H51.6073V17.4602ZM50.8873 13.1402H56.5673V14.1322H50.8873V13.1402ZM52.1353 19.6202H56.1513V24.2922H52.1353V23.2842H55.1113V20.6122H52.1353V19.6202ZM51.5913 19.6202H52.6153V25.0282H51.5913V19.6202Z" fill="white"/>
<defs>
<linearGradient id="paint0_linear_2859_71" x1="50.7425" y1="33.4892" x2="50.7425" y2="-28.8668" gradientUnits="userSpaceOnUse">
<stop stop-color="#F3F4F5"/>
<stop offset="0.003" stop-color="#00C9B5"/>
<stop offset="1" stop-color="#00C9B5" stop-opacity="0.43"/>
</linearGradient>
</defs>
</svg>
