<svg width="108" height="83" viewBox="0 0 108 83" fill="none" xmlns="http://www.w3.org/2000/svg">
<g filter="url(#filter0_d_2821_946)">
<path d="M104 70.7686C103.98 72.4235 103.304 74.0028 102.12 75.1593C100.936 76.3158 99.3416 76.9548 97.6867 76.9359H10.3184C9.49861 76.9458 8.68484 76.7942 7.92363 76.4896C7.16241 76.1851 6.46867 75.7335 5.88195 75.1608C5.29523 74.5882 4.82705 73.9055 4.50415 73.1519C4.18125 72.3983 4.00992 71.5884 4 70.7686V8.7321C4.0097 7.91213 4.18083 7.10211 4.50363 6.34829C4.82643 5.59447 5.29458 4.91158 5.88132 4.33871C6.46807 3.76585 7.16194 3.31421 7.92326 3.00954C8.68459 2.70487 9.49847 2.55315 10.3184 2.56308H97.6867C99.3418 2.5444 100.937 3.18378 102.12 4.34059C103.304 5.4974 103.98 7.07699 104 8.7321V70.7686Z" fill="#F1F1F2"/>
</g>
<path d="M102.97 70.8088C102.95 72.3876 102.305 73.8941 101.175 74.9968C100.045 76.0996 98.5229 76.7084 96.9441 76.6893H11.6088C10.0302 76.7082 8.50881 76.0993 7.37915 74.9965C6.24949 73.8937 5.60409 72.3874 5.58496 70.8088V11.3688C5.6041 9.79011 6.24943 8.2836 7.37905 7.18056C8.50866 6.07753 10.0301 5.46829 11.6088 5.48675H96.9424C98.5213 5.46806 100.043 6.07721 101.173 7.18025C102.303 8.28328 102.949 9.78988 102.968 11.3688L102.97 70.8088Z" fill="white"/>
<path d="M102.56 70.6117C102.552 71.3795 102.392 72.1382 102.09 72.8444C101.789 73.5506 101.351 74.1905 100.802 74.7275C100.253 75.2645 99.604 75.6882 98.8913 75.9742C98.1787 76.2603 97.4167 76.4032 96.6489 76.3947H11.9027C11.135 76.403 10.3732 76.2601 9.66074 75.974C8.9483 75.6879 8.29918 75.2642 7.75049 74.7271C7.20181 74.1901 6.76432 73.5502 6.46296 72.8441C6.1616 72.138 6.00228 71.3794 5.99414 70.6117V12.0767C6.01103 10.5266 6.64305 9.04658 7.75112 7.96237C8.85919 6.87816 10.3526 6.27849 11.9027 6.29534H96.6489C98.1993 6.27826 99.6931 6.87777 100.802 7.96195C101.91 9.04614 102.543 10.5263 102.56 12.0767V70.6117Z" fill="url(#paint0_linear_2821_946)"/>
<path d="M52.3396 39.0779V42.3675H55.8152V39.0779H52.3396ZM51.3241 38.1196H56.8879V43.3115H51.3241V38.1196ZM48.1632 34.8014H60.1203V47.3592H58.976V35.8884H49.2645V47.3592H48.1632V34.8014ZM48.7783 45.5856H59.634V46.6011H48.7783V45.5856ZM68.0153 38.8491H73.8937V39.9218H68.0153V38.8491ZM62.0225 45.6285H74.8663V46.7012H62.0225V45.6285ZM67.4003 34.4296H68.5302V46.2006H67.4003V34.4296ZM79.2286 40.2364V41.5523H86.4514V40.2364H79.2286ZM79.2286 42.3818V43.6977H86.4514V42.3818H79.2286ZM79.2286 38.1196V39.4069H86.4514V38.1196H79.2286ZM78.113 37.2615H87.5956V44.5558H78.113V37.2615ZM83.8054 45.4998L84.5635 44.799C86.2512 45.3568 88.0819 46.1005 89.1975 46.6583L88.1963 47.3878C87.1809 46.83 85.4788 46.0719 83.8054 45.4998ZM76.7542 34.9588H88.6969V35.9456H76.7542V34.9588ZM82.2035 35.3735L83.4622 35.5309C83.219 36.3461 82.9473 37.2186 82.7184 37.805L81.7029 37.6191C81.9032 36.9897 82.1177 36.0315 82.2035 35.3735ZM80.7304 44.7275L81.7029 45.4283C80.4586 46.1863 78.5135 46.9444 76.9831 47.3735C76.8114 47.1446 76.4825 46.7727 76.2393 46.5439C77.784 46.1291 79.7435 45.3854 80.7304 44.7275Z" fill="white"/>
<path d="M15.8677 39.0666L30.4899 24.4323C31.5006 23.4208 33.1348 23.4208 34.1347 24.4323L36.5646 26.8642C37.5752 27.8757 37.5752 29.5113 36.5646 30.512L26.2108 40.8959L36.5753 51.2691C37.586 52.2806 37.586 53.9162 36.5753 54.9169L34.1455 57.3595C33.1348 58.371 31.5006 58.371 30.5007 57.3595L15.8785 42.7252C14.8571 41.7137 14.8571 40.0781 15.8677 39.0666Z" fill="white"/>
<defs>
<filter id="filter0_d_2821_946" x="0.567366" y="0.846305" width="106.865" height="81.239" filterUnits="userSpaceOnUse" color-interpolation-filters="sRGB">
<feFlood flood-opacity="0" result="BackgroundImageFix"/>
<feColorMatrix in="SourceAlpha" type="matrix" values="0 0 0 0 0 0 0 0 0 0 0 0 0 0 0 0 0 0 127 0" result="hardAlpha"/>
<feOffset dy="1.71632"/>
<feGaussianBlur stdDeviation="1.71632"/>
<feColorMatrix type="matrix" values="0 0 0 0 0 0 0 0 0 0 0 0 0 0 0 0 0 0 0.161 0"/>
<feBlend mode="normal" in2="BackgroundImageFix" result="effect1_dropShadow_2821_946"/>
<feBlend mode="normal" in="SourceGraphic" in2="effect1_dropShadow_2821_946" result="shape"/>
</filter>
<linearGradient id="paint0_linear_2821_946" x1="54.2771" y1="76.3951" x2="54.2771" y2="6.29498" gradientUnits="userSpaceOnUse">
<stop stop-color="#F3F4F5"/>
<stop offset="0.003" stop-color="#00C9B5"/>
<stop offset="1" stop-color="#00C9B5" stop-opacity="0.463"/>
</linearGradient>
</defs>
</svg>
