<svg width="897" height="553" viewBox="0 0 897 553" fill="none" xmlns="http://www.w3.org/2000/svg">
<path fill-rule="evenodd" clip-rule="evenodd" d="M448.33 0H591.456C593.547 1.48538 595.508 3.14604 597.317 4.964C607.117 14.874 610.041 27.927 610.508 45.51C610.556 48.1327 610.827 50.7465 611.319 53.323H285.34C285.832 50.7465 286.103 48.1327 286.149 45.51C286.617 27.927 289.54 14.874 299.342 4.964C301.151 3.14559 303.112 1.48489 305.203 0H448.33Z" fill="#03776C"/>
<g filter="url(#filter0_d_2833_16)">
<path d="M857.819 542.209H38.8081C34.6229 542.209 30.5596 541.197 26.7311 539.201C23.0072 537.26 19.6572 534.474 16.7741 530.921C13.8722 527.344 11.5921 523.174 9.99706 518.526C8.34012 513.698 7.5 508.566 7.5 503.274V76.1333C7.5 70.8406 8.34012 65.7089 9.99706 60.8809C11.5921 56.2329 13.8722 52.0628 16.7741 48.4864C19.6572 44.9329 23.0072 42.1469 26.7311 40.2058C30.5596 38.21 34.6229 37.198 38.8081 37.198H857.819C862.004 37.198 866.067 38.21 869.896 40.2058C873.62 42.1469 876.97 44.9329 879.853 48.4864C882.755 52.0628 885.035 56.2329 886.63 60.8809C888.287 65.7089 889.127 70.8406 889.127 76.1333V503.274C889.127 508.566 888.287 513.698 886.63 518.526C885.035 523.174 882.755 527.344 879.853 530.921C876.97 534.474 873.62 537.26 869.896 539.201C866.067 541.197 862.004 542.209 857.819 542.209Z" fill="white"/>
<path d="M38.8081 38.698C22.3718 38.698 9 55.4914 9 76.1333V503.274C9 523.916 22.3718 540.709 38.8081 540.709H857.819C874.255 540.709 887.627 523.916 887.627 503.274V76.1333C887.627 55.4914 874.255 38.698 857.819 38.698H38.8081ZM38.8081 35.698H857.819C875.938 35.698 890.627 53.8015 890.627 76.1333V503.274C890.627 525.606 875.938 543.709 857.819 543.709H38.8081C20.6887 543.709 6 525.606 6 503.274V76.1333C6 53.8015 20.6887 35.698 38.8081 35.698Z" fill="#00C9B5"/>
</g>
<path fill-rule="evenodd" clip-rule="evenodd" d="M300.858 0.00305176C315.858 10.4101 319.923 24.8241 320.488 45.5131C321.195 71.2581 337.239 71.1521 366.424 71.1521H425.885H470.776H530.235C559.422 71.1521 575.464 71.2581 576.169 45.5131C576.736 24.8241 580.803 10.4131 595.801 0.00305176H300.858Z" fill="#00C9B5"/>
<defs>
<filter id="filter0_d_2833_16" x="0" y="32.698" width="896.627" height="520.011" filterUnits="userSpaceOnUse" color-interpolation-filters="sRGB">
<feFlood flood-opacity="0" result="BackgroundImageFix"/>
<feColorMatrix in="SourceAlpha" type="matrix" values="0 0 0 0 0 0 0 0 0 0 0 0 0 0 0 0 0 0 127 0" result="hardAlpha"/>
<feOffset dy="3"/>
<feGaussianBlur stdDeviation="3"/>
<feColorMatrix type="matrix" values="0 0 0 0 0 0 0 0 0 0 0 0 0 0 0 0 0 0 0.161 0"/>
<feBlend mode="normal" in2="BackgroundImageFix" result="effect1_dropShadow_2833_16"/>
<feBlend mode="normal" in="SourceGraphic" in2="effect1_dropShadow_2833_16" result="shape"/>
</filter>
</defs>
</svg>
