<svg width="184" height="64" viewBox="0 0 184 64" fill="none" xmlns="http://www.w3.org/2000/svg">
<g filter="url(#filter0_d_2820_429)">
<path d="M179.189 49.4912C179.161 51.7992 178.218 54.0017 176.567 55.6146C174.916 57.2275 172.692 58.1188 170.384 58.0926H12.8092C10.5005 58.1198 8.27556 57.229 6.62359 55.616C4.97162 54.003 4.02788 51.7999 4 49.4912V10.6038C4.02764 8.29483 4.97123 6.09142 6.6232 4.47808C8.27517 2.86474 10.5003 1.9736 12.8092 2.0006H170.382C172.69 1.97458 174.914 2.86621 176.565 4.47947C178.216 6.09273 179.159 8.29556 179.186 10.6038L179.189 49.4912Z" fill="#F1F1F2"/>
</g>
<path d="M177.746 47.1689C177.733 48.2594 177.505 49.3367 177.076 50.3392C176.647 51.3417 176.024 52.2497 175.244 53.0116C174.463 53.7734 173.541 54.3741 172.528 54.7792C171.515 55.1843 170.433 55.3861 169.343 55.3728H14.6086C13.5183 55.3858 12.4361 55.1839 11.4238 54.7786C10.4116 54.3734 9.48905 53.7727 8.70895 53.0109C7.92885 52.2491 7.30644 51.3411 6.87729 50.3387C6.44814 49.3363 6.22062 48.2592 6.20776 47.1689V11.904C6.2342 9.70214 7.13407 7.60093 8.70945 6.06247C10.2848 4.52401 12.4067 3.67426 14.6086 3.70004H169.343C171.546 3.67402 173.668 4.52359 175.244 6.06203C176.82 7.60046 177.72 9.70181 177.747 11.904L177.746 47.1689Z" fill="white"/>
<path d="M177.181 46.8943C177.169 47.9652 176.947 49.0233 176.526 50.0082C176.106 50.9931 175.495 51.8855 174.729 52.6345C173.964 53.3834 173.058 53.9743 172.064 54.3732C171.071 54.7722 170.008 54.9714 168.937 54.9596H15.017C13.9463 54.9712 12.8838 54.7718 11.8903 54.3727C10.8967 53.9736 9.99148 53.3827 9.22628 52.6337C8.46108 51.8848 7.85088 50.9925 7.43056 50.0077C7.01025 49.0229 6.78804 47.9649 6.77661 46.8943V12.8936C6.80018 10.7316 7.68155 8.66753 9.22689 7.15535C10.7722 5.64317 12.855 4.80675 15.017 4.83009H168.933C171.096 4.80626 173.179 5.64239 174.725 7.15457C176.271 8.66675 177.153 10.7311 177.177 12.8936L177.181 46.8943Z" fill="url(#paint0_linear_2820_429)"/>
<path d="M19.7899 44.8425L32.2615 32.371L44.733 44.8425L46.8462 42.7423L34.3746 30.2578L46.8462 17.7863L44.733 15.6731L32.2615 28.1447L19.7899 15.6731L17.6768 17.7863L30.1483 30.2578L17.6768 42.7423L19.7899 44.8425Z" fill="black"/>
<path d="M85.008 23.6876H92.2663V25.1235H85.008V23.6876ZM75.881 22.2123H85.4998V23.5892H75.881V22.2123ZM78.1824 26.2054H83.2967V27.5626H78.1824V26.2054ZM78.1824 30.2968H83.2967V31.6344H78.1824V30.2968ZM91.8336 23.6876H92.0893L92.3647 23.6482L93.3089 23.904C92.3647 31.7327 89.3551 36.3552 85.1457 38.7943C84.9097 38.4206 84.4966 37.8698 84.1622 37.5944C88.0569 35.5684 90.9878 30.9459 91.8336 24.0417V23.6876ZM86.798 25.2022C87.8405 30.8869 90.1223 35.5487 94.1743 37.6338C93.84 37.9288 93.3679 38.4796 93.1318 38.873C88.8634 36.4536 86.6013 31.654 85.3818 25.4776L86.798 25.2022ZM77.4153 22.7434H78.8316V35.5094H77.4153V22.7434ZM82.6869 22.7434H84.1032V39.0304H82.6869V22.7434ZM75.4876 35.0767C77.4153 34.8406 80.3855 34.4275 83.2574 33.9948L83.336 35.352C80.6412 35.7848 77.8087 36.2372 75.763 36.5519L75.4876 35.0767ZM103.026 30.0804H111.445V31.3787H103.026V30.0804ZM102.987 33.503H111.445V34.7816H102.987V33.503ZM111.583 21.5239L113.018 22.0943C112.31 23.3925 111.464 24.8285 110.756 25.812L109.517 25.2809C110.206 24.2777 111.11 22.6844 111.583 21.5239ZM101.531 22.1927L102.77 21.6419C103.616 22.7434 104.501 24.258 104.836 25.2612L103.518 25.9103C103.203 24.8875 102.357 23.3532 101.531 22.1927ZM102.082 26.5988H111.523V27.9757H103.537V39.0697H102.082V26.5988ZM110.796 26.5988H112.232V37.2207C112.232 38.0469 112.055 38.4796 111.464 38.7353C110.874 38.9714 109.891 38.9714 108.396 38.9714C108.317 38.578 108.101 37.9682 107.904 37.5551C109.045 37.5944 110.088 37.5944 110.383 37.5944C110.697 37.5748 110.796 37.4764 110.796 37.2207V26.5988ZM106.488 20.9731H107.963V27.4643H106.488V20.9731ZM96.2987 22.2123L97.1642 21.1895C98.3838 21.7992 99.859 22.7434 100.587 23.4712L99.682 24.6121C98.9936 23.8843 97.5183 22.8614 96.2987 22.2123ZM95.3742 27.4643L96.2201 26.4218C97.4396 27.0119 98.9739 27.956 99.741 28.6642L98.8559 29.8247C98.1084 29.1166 96.6135 28.1134 95.3742 27.4643ZM95.984 37.9288C96.9479 36.3946 98.3051 33.7981 99.3279 31.536L100.429 32.4212C99.5247 34.5259 98.3051 37.0043 97.2626 38.873L95.984 37.9288ZM123.542 20.9534L124.998 21.1108C124.722 21.9763 124.467 22.8811 124.23 23.4909L123.09 23.3335C123.267 22.6451 123.463 21.6222 123.542 20.9534ZM122.637 26.3627V27.9954H125.804V26.3627H122.637ZM122.637 23.7269V25.3399H125.804V23.7269H122.637ZM121.437 22.6254H127.043V29.0969H121.437V22.6254ZM123.562 29.0772H124.88V31.418H123.562V29.0772ZM121.123 30.7885H127.555V31.9884H121.123V30.7885ZM123.168 33.3653H126.473V34.4865H122.952L123.168 33.3653ZM125.804 33.3653H127.063C127.063 33.3653 127.043 33.7194 127.024 33.9161C126.807 36.9453 126.611 38.1452 126.197 38.5976C125.942 38.8927 125.666 38.991 125.234 39.0304C124.899 39.05 124.27 39.0697 123.621 39.0304C123.601 38.6763 123.483 38.2042 123.306 37.9092C123.916 37.9485 124.447 37.9682 124.683 37.9682C124.899 37.9682 125.057 37.9485 125.194 37.7911C125.43 37.5158 125.627 36.4339 125.804 33.562V33.3653ZM122.795 31.5754H124.053C123.916 35.2537 123.444 37.6928 121.083 39.1091C120.946 38.814 120.572 38.3813 120.277 38.1649C122.342 36.965 122.696 34.8406 122.795 31.5754ZM128.814 20.9928L130.092 21.1501C129.679 24.7891 128.951 28.1921 127.594 30.4738C127.397 30.2378 126.906 29.746 126.611 29.5296C127.869 27.4839 128.479 24.2974 128.814 20.9928ZM128.892 25.0448H133.239V26.4021H128.499L128.892 25.0448ZM129.03 26.4218C129.659 31.359 130.958 35.7848 133.475 37.9092C133.161 38.1649 132.708 38.637 132.472 39.0304C129.915 36.5716 128.676 31.9097 128.027 26.5791L129.03 26.4218ZM131.351 25.4186L132.453 25.93C131.922 31.7524 130.525 36.7486 127.535 39.0894C127.319 38.7747 126.886 38.3026 126.532 38.0469C129.522 35.9225 130.859 31.1819 131.351 25.4186ZM117.877 21.0321L119.097 21.5042C118.447 22.9008 117.602 24.6318 116.913 25.694L115.969 25.2612C116.618 24.1597 117.444 22.3107 117.877 21.0321ZM119.844 23.3335L121.024 23.845C119.864 26.0677 118.192 28.8412 116.874 30.5525L115.93 30.0804C117.248 28.3691 118.92 25.4382 119.844 23.3335ZM114.985 25.1235L115.733 24.199C116.756 25.1235 117.956 26.4218 118.447 27.2872L117.661 28.3691C117.169 27.4446 116.008 26.0677 114.985 25.1235ZM119.175 27.8773L120.218 27.5036C120.828 28.7428 121.398 30.3558 121.536 31.359L120.414 31.8114C120.296 30.7689 119.765 29.1362 119.175 27.8773ZM114.985 29.805C116.48 29.7657 118.585 29.7067 120.749 29.6083L120.729 30.7689C118.664 30.9066 116.677 31.0049 115.064 31.1033L114.985 29.805ZM119.313 32.4999L120.316 32.1851C120.808 33.3653 121.26 34.9193 121.398 35.9225L120.336 36.2765C120.198 35.2734 119.746 33.6801 119.313 32.4999ZM115.93 32.2441L117.09 32.4605C116.874 34.2702 116.461 36.1782 115.93 37.4371C115.694 37.2797 115.162 37.0437 114.848 36.9453C115.418 35.7258 115.733 33.9555 115.93 32.2441ZM117.72 30.3755H118.959V39.0894H117.72V30.3755ZM137.41 24.1597H149.762V23.0581H136.072V22.0746H151.139V25.1629H137.41V24.1597ZM136.957 24.1597H138.354C137.98 25.3005 137.528 26.5988 137.173 27.4643L135.816 27.3659C136.21 26.4808 136.642 25.2219 136.957 24.1597ZM136.878 26.2054H151.454V27.2086H136.564L136.878 26.2054ZM150.982 26.2054H152.379C152.379 26.2054 152.359 26.5201 152.339 26.6971C152.221 27.897 152.084 28.4871 151.769 28.8018C151.533 29.0379 151.198 29.1362 150.805 29.1559C150.471 29.1756 149.782 29.1756 149.074 29.1166C149.054 28.8412 148.936 28.4084 148.799 28.1331C149.408 28.1921 149.939 28.2117 150.156 28.2117C150.392 28.2117 150.51 28.1921 150.608 28.0937C150.766 27.9364 150.864 27.4839 150.982 26.4021V26.2054ZM140.911 20.9928H142.268V24.5334C142.268 27.1299 141.462 29.1953 135.757 30.2968C135.639 29.9624 135.324 29.4116 135.069 29.1559C140.262 28.1724 140.911 26.5201 140.911 24.4941V20.9928ZM145.317 20.9928H146.714V28.6838H145.317V20.9928ZM138.963 31.8114V33.031H148.858V31.8114H138.963ZM138.963 33.9555V35.1947H148.858V33.9555H138.963ZM138.963 29.687V30.8869H148.858V29.687H138.963ZM137.528 28.7232H150.333V36.1388H137.528V28.7232ZM145.396 37.1224L146.556 36.3552C148.759 36.9453 151.159 37.7321 152.595 38.3222L151.002 39.1091C149.743 38.5189 147.579 37.7715 145.396 37.1224ZM140.852 36.3355L142.17 36.9257C140.576 37.8108 138.059 38.6566 136.092 39.1484C135.856 38.8533 135.344 38.3026 135.01 38.0469C137.055 37.6535 139.436 37.0437 140.852 36.3355Z" fill="black"/>
<defs>
<filter id="filter0_d_2820_429" x="0.0659533" y="0.0329766" width="183.057" height="63.9614" filterUnits="userSpaceOnUse" color-interpolation-filters="sRGB">
<feFlood flood-opacity="0" result="BackgroundImageFix"/>
<feColorMatrix in="SourceAlpha" type="matrix" values="0 0 0 0 0 0 0 0 0 0 0 0 0 0 0 0 0 0 127 0" result="hardAlpha"/>
<feOffset dy="1.96702"/>
<feGaussianBlur stdDeviation="1.96702"/>
<feColorMatrix type="matrix" values="0 0 0 0 0 0 0 0 0 0 0 0 0 0 0 0 0 0 0.161 0"/>
<feBlend mode="normal" in2="BackgroundImageFix" result="effect1_dropShadow_2820_429"/>
<feBlend mode="normal" in="SourceGraphic" in2="effect1_dropShadow_2820_429" result="shape"/>
</filter>
<linearGradient id="paint0_linear_2820_429" x1="91.9787" y1="54.9601" x2="91.9787" y2="4.82959" gradientUnits="userSpaceOnUse">
<stop offset="0.003" stop-color="#F3F4F5"/>
<stop offset="1" stop-color="#C8CACC"/>
</linearGradient>
</defs>
</svg>
