<svg width="176" height="99" viewBox="0 0 176 99" fill="none" xmlns="http://www.w3.org/2000/svg">
<path d="M175.994 88.1435C175.959 90.9973 174.768 93.7206 172.683 95.7144C170.598 97.7081 167.79 98.8092 164.877 98.7751H11.1173C8.20393 98.8088 5.39607 97.7076 3.3113 95.7139C1.22653 93.7202 0.0354807 90.9972 0 88.1435V10.636C0.034711 7.78176 1.22546 5.05797 3.31032 3.06366C5.39517 1.06935 8.20343 -0.0321437 11.1173 0.00149691H164.884C166.327 -0.015349 167.759 0.246362 169.099 0.771696C170.438 1.29703 171.659 2.07571 172.691 3.06323C173.724 4.05075 174.547 5.22781 175.115 6.52715C175.683 7.82649 175.984 9.22264 176.001 10.636L175.994 88.1435Z" fill="#F1F1F2"/>
<path d="M174.172 88.2165C174.138 90.938 173.002 93.535 171.014 95.4361C169.025 97.3371 166.347 98.3866 163.569 98.3537H13.3827C10.6046 98.3862 7.92704 97.3365 5.93903 95.4354C3.95101 93.5344 2.81529 90.9377 2.78174 88.2165V15.1866C2.81529 12.4651 3.95092 9.86816 5.93885 7.96663C7.92678 6.06511 10.6043 5.01476 13.3827 5.04649H163.569C166.347 5.01438 169.025 6.0645 171.014 7.96602C173.002 9.86755 174.138 12.4647 174.172 15.1866V88.2165Z" fill="white"/>
<path d="M3.50029 16.4102C3.515 15.0865 3.79576 13.7785 4.32657 12.5611C4.85736 11.3436 5.62781 10.2405 6.59387 9.31475C7.55994 8.38897 8.70271 7.65865 9.95694 7.1655C11.2112 6.67236 12.5523 6.42603 13.9037 6.4406L163.055 6.4406C164.406 6.42622 165.747 6.6727 167.001 7.16597C168.255 7.65925 169.397 8.38964 170.363 9.31544C171.329 10.2412 172.099 11.3443 172.629 12.5616C173.16 13.779 173.44 15.0867 173.454 16.4102V87.8798C173.425 90.5522 172.312 93.1036 170.362 94.9727C168.412 96.8418 165.784 97.8756 163.055 97.8466L13.9037 97.8466C11.1749 97.876 8.54585 96.8425 6.59488 94.9734C4.64391 93.1043 3.53078 90.5527 3.50029 87.8798V16.4102Z" fill="url(#paint0_linear_2820_388)"/>
<path d="M128.528 67.6533L144.027 57.0555C144.79 56.5354 145.414 55.8339 145.846 55.0127C146.278 54.1914 146.504 53.2756 146.504 52.3454C146.504 51.4153 146.278 50.4995 145.846 49.6782C145.414 48.857 144.79 48.1555 144.027 47.6353L128.528 37.0376C127.676 36.4511 126.683 36.1096 125.654 36.0496C124.625 35.9896 123.599 36.2133 122.686 36.6969C121.773 37.1805 121.007 37.9058 120.47 38.7954C119.933 39.685 119.644 40.7054 119.636 41.7477V62.9432C119.644 63.9855 119.933 65.0059 120.47 65.8955C121.007 66.785 121.773 67.5103 122.686 67.994C123.599 68.4776 124.625 68.7013 125.654 68.6413C126.683 68.5813 127.676 68.2398 128.528 67.6533Z" fill="white"/>
<path d="M52.5883 52.7935H63.121V54.3559H52.5883V52.7935ZM52.5883 57.2114H63.121V58.8007H52.5883V57.2114ZM52.6153 61.6561H64.3871V63.3801H52.6153V61.6561ZM49.5444 42.5302H64.2524V47.1366H62.4476V44.2812H51.2953V47.1366H49.5444V42.5302ZM56.9792 49.5879H58.8649V62.572H56.9792V49.5879ZM53.3157 48.2949H63.579V50.0459H53.3157V64.5385H51.4031V50.1267L53.154 48.2949H53.3157ZM55.8478 39.7556L57.7874 40.1328C56.2519 45.6011 53.585 50.0728 49.9484 52.9552C49.6521 52.578 48.9248 51.8238 48.4938 51.4736C52.0496 48.8876 54.5279 44.7122 55.8478 39.7556ZM58.6494 45.0893L60.562 45.5742C59.9154 46.975 59.1881 48.4835 58.6224 49.5071L57.06 49.0492C57.6257 47.9717 58.3261 46.2746 58.6494 45.0893ZM39.9545 41.5874H49.4636V43.4461H39.9545V41.5874ZM42.6752 49.4533H48.7632V61.252H42.6752V59.4741H46.9853V51.2581H42.6752V49.4533ZM43.1332 42.4763L45.0727 42.7727C44.2376 48.4296 42.8368 53.7364 40.3316 57.2652C40.1161 56.8073 39.5504 55.8106 39.1733 55.3526C41.3283 52.3087 42.4866 47.5407 43.1332 42.4763ZM41.8401 49.4533H43.5372V63.3532H41.8401V49.4533ZM82.193 41.6413H84.0518C83.4861 46.0052 82.1661 50.3691 77.452 52.7127C77.2365 52.2817 76.6708 51.6083 76.2398 51.285C80.6307 49.2647 81.7351 45.3318 82.193 41.6413ZM77.2365 45.4934L78.2332 44.0926C81.0347 45.0354 84.402 46.7056 86.1799 47.9447L85.2101 49.5341C83.4053 48.2141 80.038 46.4362 77.2365 45.4934ZM88.5504 40.9139H90.463C90.463 40.9139 90.463 41.5066 90.436 41.776C90.1667 48.1333 89.8973 50.5308 89.2238 51.312C88.7928 51.8238 88.3349 52.0123 87.6076 52.0932C86.9611 52.147 85.695 52.1201 84.4289 52.0662C84.402 51.5005 84.2134 50.7193 83.9171 50.2344C85.1562 50.3422 86.2876 50.3422 86.7186 50.3422C87.1496 50.3691 87.3921 50.2883 87.5806 50.0728C88.0655 49.5071 88.3349 47.3521 88.5504 41.2641V40.9139ZM80.2805 55.2718H82.1661V61.7639C82.1661 62.4373 82.2739 62.545 83.0281 62.545C83.3783 62.545 85.1293 62.545 85.5603 62.545C86.2876 62.545 86.3954 62.1679 86.4762 59.4741C86.8533 59.7974 87.6614 60.0668 88.2002 60.2284C87.9847 63.5148 87.4729 64.3499 85.7758 64.3499C85.3448 64.3499 83.2167 64.3499 82.7857 64.3499C80.7384 64.3499 80.2805 63.7842 80.2805 61.7908V55.2718ZM77.7214 56.1877L79.3646 56.5918C79.0683 58.9893 78.5026 61.6022 77.0749 63.1107L75.5663 62.114C76.8594 60.7941 77.452 58.4236 77.7214 56.1877ZM80.7384 52.7935L81.9237 51.6083C83.7016 52.5511 85.7758 54.0057 86.7725 55.1371L85.5064 56.511C84.5366 55.3796 82.4894 53.8172 80.7384 52.7935ZM87.0149 56.3763L88.6851 55.7028C90.1397 57.6693 91.3519 60.3092 91.756 62.141L89.9512 62.8952C89.601 61.0635 88.4157 58.3427 87.0149 56.3763ZM77.4789 40.9139H89.3855V42.6649H77.4789V40.9139ZM67.7274 47.9178H75.3778V49.5341H67.7274V47.9178ZM67.8352 40.7254H75.27V42.3417H67.8352V40.7254ZM67.7274 51.5275H75.3778V53.1437H67.7274V51.5275ZM66.5152 44.2542H76.132V45.9244H66.5152V44.2542ZM68.6164 55.1641H75.3778V63.0299H68.6164V61.3328H73.6268V56.8342H68.6164V55.1641ZM67.7005 55.1641H69.4245V64.2691H67.7005V55.1641Z" fill="white"/>
<defs>
<linearGradient id="paint0_linear_2820_388" x1="88.4773" y1="6.43998" x2="88.4773" y2="97.8472" gradientUnits="userSpaceOnUse">
<stop stop-color="#00C9B5"/>
<stop offset="1" stop-color="#02AE97"/>
</linearGradient>
</defs>
</svg>
