<svg width="110" height="103" viewBox="0 0 110 103" fill="none" xmlns="http://www.w3.org/2000/svg">
<g clip-path="url(#clip0_2820_70)">
<path d="M110 10.6048C110 4.73832 105.237 0 99.3402 0H10.6598C4.76289 0 0 4.73832 0 10.6048V91.457C0 97.3235 4.76289 102.062 10.6598 102.062H99.4158C105.313 102.062 110.076 97.3235 110.076 91.457V10.6048H110ZM92.8385 95.8945H19.9588C14.0619 95.8945 9.29897 91.081 9.29897 85.2145V16.8474C9.29897 10.9809 14.0619 6.24255 19.9588 6.16733H92.8385C98.7354 6.16733 103.498 10.9809 103.498 16.8474V85.2145C103.498 91.081 98.7354 95.8193 92.8385 95.8945Z" fill="url(#paint0_linear_2820_70)"/>
<path d="M103.423 85.2145V16.8473C103.423 10.9809 98.6599 6.24254 92.763 6.16733H19.9589C14.062 6.16733 9.29907 10.9809 9.29907 16.8473V85.2145C9.29907 91.081 14.062 95.8193 19.9589 95.8945H92.8386C98.7355 95.8193 103.498 91.081 103.423 85.2145ZM86.5637 90.028H29.1066C23.2097 89.9528 18.4468 85.1393 18.4468 79.2728V22.8643C18.3712 16.9978 23.1341 12.109 29.1066 12.109H86.4881C92.385 12.1842 97.1479 16.9978 97.1479 22.8643V79.2728C97.2235 85.1393 92.4606 89.9528 86.5637 90.028Z" fill="url(#paint1_linear_2820_70)"/>
<path d="M103.423 85.2145V16.8473C103.423 10.9809 98.6599 6.24254 92.763 6.16733H19.9589C14.062 6.16733 9.29907 10.9809 9.29907 16.8473V85.2145C9.29907 91.081 14.062 95.8193 19.9589 95.8945H92.8386C98.7355 95.8193 103.498 91.081 103.423 85.2145ZM86.5637 90.028H29.1066C23.2097 89.9528 18.4468 85.1393 18.4468 79.2728V22.8643C18.3712 16.9978 23.1341 12.109 29.1066 12.109H86.4881C92.385 12.1842 97.1479 16.9978 97.1479 22.8643V79.2728C97.2235 85.1393 92.4606 89.9528 86.5637 90.028Z" fill="url(#paint2_linear_2820_70)"/>
<path d="M97.1477 79.1976V22.7891C97.2233 16.9226 92.4604 12.0338 86.4879 12.0338H29.1065C23.2096 12.1091 18.4467 16.9226 18.4467 22.7891V79.1976C18.3711 85.0641 23.134 89.9529 29.1065 89.9529H86.4879C92.4604 89.9529 97.2233 85.1393 97.1477 79.1976Z" fill="#F2F2F2"/>
<g clip-path="url(#clip1_2820_70)">
<path d="M73.4846 34.3608C70.1393 37.5928 60.7269 46.6082 57.6083 49.6134C55.2836 47.4021 57.5516 49.5567 41.6753 34.3041L43.8867 32.0928L57.6083 45.2474L59.0826 43.8299L71.2166 32.2062L73.4846 34.3608Z" fill="#0AC6B4"/>
</g>
<path d="M32.9716 65.7742H48.1108V67.067H32.9716V65.7742ZM39.5206 66.7948H40.8644V80.1479H39.5206V66.7948ZM40.269 70.8263L41.1025 69.8397C43.1438 70.8263 45.8314 72.3742 47.1922 73.3948L46.2907 74.5515C44.9809 73.4969 42.3273 71.8809 40.269 70.8263ZM49.7948 71.4727H65.3592V72.8675H49.7948V71.4727ZM70.3773 71.6768V73.2417H78.9675V71.6768H70.3773ZM70.3773 74.2283V75.7933H78.9675V74.2283H70.3773ZM70.3773 69.1593V70.6902H78.9675V69.1593H70.3773ZM69.0505 68.1386H80.3283V76.8139H69.0505V68.1386ZM75.8206 77.9366L76.7221 77.1031C78.7293 77.7665 80.9067 78.651 82.2335 79.3144L81.0427 80.1819C79.835 79.5185 77.8108 78.617 75.8206 77.9366ZM67.4345 65.4H81.6381V66.5737H67.4345V65.4ZM73.9154 65.8933L75.4123 66.0804C75.1232 67.05 74.8 68.0876 74.5278 68.785L73.3201 68.5639C73.5582 67.8154 73.8134 66.6758 73.9154 65.8933ZM72.1634 77.018L73.3201 77.8515C71.8402 78.7531 69.5268 79.6546 67.7067 80.1649C67.5025 79.8928 67.1113 79.4505 66.8221 79.1783C68.6592 78.685 70.9896 77.8005 72.1634 77.018Z" fill="#404041"/>
</g>
<defs>
<linearGradient id="paint0_linear_2820_70" x1="81.9554" y1="14.549" x2="10.7293" y2="111.904" gradientUnits="userSpaceOnUse">
<stop stop-color="#00C7B4" stop-opacity="0.416"/>
<stop offset="1" stop-color="#00C7B4"/>
</linearGradient>
<linearGradient id="paint1_linear_2820_70" x1="82.8706" y1="15.2056" x2="11.6444" y2="112.56" gradientUnits="userSpaceOnUse">
<stop stop-color="#00C7B4" stop-opacity="0.416"/>
<stop offset="1" stop-color="#00C7B4"/>
</linearGradient>
<linearGradient id="paint2_linear_2820_70" x1="75.5112" y1="-11.1583" x2="37.6022" y2="113.479" gradientUnits="userSpaceOnUse">
<stop stop-color="#FEFEFE"/>
<stop offset="1" stop-color="#CDCBCC"/>
</linearGradient>
<clipPath id="clip0_2820_70">
<rect width="110" height="102.062" fill="white"/>
</clipPath>
<clipPath id="clip1_2820_70">
<rect width="17.5206" height="31.8093" fill="white" transform="matrix(1.19249e-08 -1 -1 -1.19249e-08 73.4846 49.6134)"/>
</clipPath>
</defs>
</svg>
