<svg width="270" height="70" viewBox="0 0 270 70" fill="none" xmlns="http://www.w3.org/2000/svg">
<path d="M60.5086 39.324C61.0301 38.9399 61.8858 39.0051 62.7383 39.0701C63.0993 39.0976 63.4597 39.1251 63.7939 39.1184C64.3505 39.1078 64.9059 39.1059 65.4618 39.104C65.6999 39.1031 65.938 39.1023 66.1764 39.1008V31.0756C65.7036 31.0712 65.231 31.065 64.7584 31.0587C63.6044 31.0434 62.4509 31.028 61.2961 31.0405C60.6089 31.048 60.2303 30.89 60.1199 30.1151C60.0371 29.5265 59.8675 28.9486 59.6864 28.3315C59.6044 28.052 59.52 27.7645 59.4403 27.4643C61.0227 26.5364 62.6228 25.5984 64.3557 24.5827C63.3566 22.8418 62.3714 21.1258 61.365 19.3729C61.0173 18.7674 60.6672 18.1575 60.313 17.5406C58.6653 18.476 57.0603 19.3889 55.385 20.3419C55.1812 20.1401 54.9755 19.942 54.7707 19.7448C54.222 19.2164 53.6796 18.694 53.1957 18.1224C53.0176 17.9118 53.0377 17.355 53.1881 17.0741C53.7481 16.024 54.3492 14.9965 54.9775 13.9224C55.1849 13.5678 55.3954 13.2081 55.6082 12.8408C54.3372 12.1077 53.0698 11.376 51.7924 10.6386C50.7234 10.0214 49.6473 9.40013 48.5561 8.77056C48.3213 9.17319 48.0937 9.57098 47.869 9.96377C47.2847 10.9851 46.7196 11.9727 46.0984 12.9236C45.9078 13.217 45.3159 13.4528 44.9623 13.3951C44.3042 13.2889 43.6611 13.0954 42.9793 12.8903C42.6945 12.8046 42.403 12.7169 42.1008 12.6327V7H34.0756C34.0712 7.45565 34.0617 7.9113 34.0523 8.36689C34.0297 9.45594 34.0071 10.5446 34.053 11.632C34.0882 12.4872 33.737 12.7807 32.9822 12.9662L32.9158 12.9825C30.409 13.5984 30.3998 13.6007 29.0548 11.3035C28.7388 10.7641 28.4261 10.2215 28.1015 9.65825C27.9341 9.36778 27.7635 9.07183 27.5877 8.76805C25.5641 9.93528 23.6136 11.0615 21.643 12.1993C21.2764 12.411 20.9092 12.623 20.5406 12.8358C21.1223 13.8558 21.6889 14.8472 22.2548 15.8377C22.6087 16.457 22.9623 17.0759 23.3193 17.7011C22.6447 18.3246 21.9787 18.9394 21.2704 19.5933C21.0413 19.8048 20.8078 20.0203 20.5682 20.2416C19.1462 19.429 17.5612 18.5237 15.8408 17.5431C15.3109 18.4585 14.7822 19.3712 14.2491 20.2912C13.4401 21.6877 12.6212 23.1012 11.7731 24.5677C12.0228 24.7147 12.2722 24.8614 12.5214 25.0081C13.884 25.81 15.2443 26.6106 16.6584 27.4417C16.5922 27.72 16.5309 27.9998 16.4697 28.2795C16.3109 29.0056 16.1523 29.7309 15.906 30.4261C15.8057 30.712 15.244 30.9878 14.8828 31.0054C13.6803 31.0611 12.475 31.0659 11.27 31.0708C10.8466 31.0725 10.4232 31.0742 10 31.0781V39.1033C10.4368 39.1046 10.8738 39.103 11.3108 39.1014C12.5448 39.0969 13.7792 39.0924 15.0107 39.1535C15.3618 39.171 15.8559 39.5698 15.9938 39.9084C16.2327 40.5012 16.3867 41.1277 16.5501 41.7924C16.6182 42.0697 16.688 42.3536 16.7662 42.6444C15.1311 43.5999 13.4935 44.5554 11.7756 45.5561C12.5629 46.9218 13.3331 48.2589 14.1011 49.5921C14.6785 50.5945 15.2546 51.5947 15.8358 52.6032C16.79 52.0584 17.7255 51.5237 18.6531 50.9934C19.3907 50.5718 20.1234 50.153 20.8566 49.7342C21.7168 50.5919 22.5369 51.4095 23.4121 52.2797L22.9346 53.116C22.1457 54.4975 21.3544 55.8832 20.5406 57.3105C22.1195 58.2187 23.6768 59.1156 25.2567 60.0255C26.0283 60.4699 26.8053 60.9174 27.5928 61.3708C27.8492 60.9258 28.1033 60.4905 28.3539 60.061C28.9439 59.0499 29.5151 58.071 30.0555 57.0748C30.394 56.4478 30.7477 56.2672 31.4474 56.5331C32.008 56.7455 32.5952 56.889 33.2233 57.0425C33.4999 57.1101 33.7845 57.1796 34.0781 57.2578V63.1789H42.1033V57.2704C42.3957 57.187 42.6796 57.1016 42.9579 57.0178C43.6848 56.799 44.374 56.5916 45.0777 56.4628C45.351 56.4127 45.8275 56.7262 45.9981 57.0045C46.6264 58.0132 47.217 59.0461 47.843 60.1407C48.0715 60.5402 48.3046 60.9479 48.5461 61.3657C50.3318 60.3399 52.0934 59.3297 53.8576 58.3181C54.4397 57.9843 55.0221 57.6503 55.6057 57.3155C55.2437 56.6815 54.8858 56.0543 54.5308 55.4324C53.9269 54.3741 53.3316 53.331 52.7392 52.2948C53.334 51.7364 53.9037 51.201 54.485 50.6546C54.7836 50.374 55.0853 50.0905 55.3951 49.7994C56.9499 50.6872 58.6077 51.6327 60.3105 52.6032C60.9625 51.4714 61.6091 50.3477 62.2588 49.219C62.9536 48.0118 63.6517 46.7988 64.3632 45.5636C63.2653 44.9207 62.2049 44.3008 61.1701 43.6958C60.6024 43.3639 60.0423 43.0364 59.4879 42.7122C59.477 42.6555 59.4637 42.6075 59.4522 42.566C59.4321 42.4936 59.4175 42.4408 59.4302 42.3962C59.5282 42.0768 59.5994 41.7205 59.6707 41.3639C59.8368 40.5331 60.0033 39.7003 60.5086 39.3265V39.324ZM38.0882 53.2528C28.0567 53.2528 19.9237 45.1197 19.9237 35.0882C19.9237 25.0567 28.0567 16.9237 38.0882 16.9237C48.1197 16.9237 56.2528 25.0567 56.2528 35.0882C56.2528 45.1197 48.1197 53.2528 38.0882 53.2528Z" fill="#1D2A74"/>
<path d="M60.5086 39.324C61.0301 38.9399 61.8858 39.0051 62.7383 39.0701C63.0993 39.0976 63.4597 39.1251 63.7939 39.1184C64.3505 39.1078 64.9059 39.1059 65.4618 39.104C65.6999 39.1031 65.938 39.1023 66.1764 39.1008V31.0756C65.7036 31.0712 65.231 31.065 64.7584 31.0587C63.6044 31.0434 62.4509 31.028 61.2961 31.0405C60.6089 31.048 60.2303 30.89 60.1199 30.1151C60.0371 29.5265 59.8675 28.9486 59.6864 28.3315C59.6044 28.052 59.52 27.7645 59.4403 27.4643C61.0227 26.5364 62.6228 25.5984 64.3557 24.5827C63.3566 22.8418 62.3714 21.1258 61.365 19.3729C61.0173 18.7674 60.6672 18.1575 60.313 17.5406C58.6653 18.476 57.0603 19.3889 55.385 20.3419C55.1812 20.1401 54.9755 19.942 54.7707 19.7448C54.222 19.2164 53.6796 18.694 53.1957 18.1224C53.0176 17.9118 53.0377 17.355 53.1881 17.0741C53.7481 16.024 54.3492 14.9965 54.9775 13.9224C55.1849 13.5678 55.3954 13.2081 55.6082 12.8408C54.3372 12.1077 53.0698 11.376 51.7924 10.6386C50.7234 10.0214 49.6473 9.40013 48.5561 8.77056C48.3213 9.17319 48.0937 9.57098 47.869 9.96377C47.2847 10.9851 46.7196 11.9727 46.0984 12.9236C45.9078 13.217 45.3159 13.4528 44.9623 13.3951C44.3042 13.2889 43.6611 13.0954 42.9793 12.8903C42.6945 12.8046 42.403 12.7169 42.1008 12.6327V7H34.0756C34.0712 7.45565 34.0617 7.9113 34.0523 8.36689C34.0297 9.45594 34.0071 10.5446 34.053 11.632C34.0882 12.4872 33.737 12.7807 32.9822 12.9662L32.9158 12.9825C30.409 13.5984 30.3998 13.6007 29.0548 11.3035C28.7388 10.7641 28.4261 10.2215 28.1015 9.65825C27.9341 9.36778 27.7635 9.07183 27.5877 8.76805C25.5641 9.93528 23.6136 11.0615 21.643 12.1993C21.2764 12.411 20.9092 12.623 20.5406 12.8358C21.1223 13.8558 21.6889 14.8472 22.2548 15.8377C22.6087 16.457 22.9623 17.0759 23.3193 17.7011C22.6447 18.3246 21.9787 18.9394 21.2704 19.5933C21.0413 19.8048 20.8078 20.0203 20.5682 20.2416C19.1462 19.429 17.5612 18.5237 15.8408 17.5431C15.3109 18.4585 14.7822 19.3712 14.2491 20.2912C13.4401 21.6877 12.6212 23.1012 11.7731 24.5677C12.0228 24.7147 12.2722 24.8614 12.5214 25.0081C13.884 25.81 15.2443 26.6106 16.6584 27.4417C16.5922 27.72 16.5309 27.9998 16.4697 28.2795C16.3109 29.0056 16.1523 29.7309 15.906 30.4261C15.8057 30.712 15.244 30.9878 14.8828 31.0054C13.6803 31.0611 12.475 31.0659 11.27 31.0708C10.8466 31.0725 10.4232 31.0742 10 31.0781V39.1033C10.4368 39.1046 10.8738 39.103 11.3108 39.1014C12.5448 39.0969 13.7792 39.0924 15.0107 39.1535C15.3618 39.171 15.8559 39.5698 15.9938 39.9084C16.2327 40.5012 16.3867 41.1277 16.5501 41.7924C16.6182 42.0697 16.688 42.3536 16.7662 42.6444C15.1311 43.5999 13.4935 44.5554 11.7756 45.5561C12.5629 46.9218 13.3331 48.2589 14.1011 49.5921C14.6785 50.5945 15.2546 51.5947 15.8358 52.6032C16.79 52.0584 17.7255 51.5237 18.6531 50.9934C19.3907 50.5718 20.1234 50.153 20.8566 49.7342C21.7168 50.5919 22.5369 51.4095 23.4121 52.2797L22.9346 53.116C22.1457 54.4975 21.3544 55.8832 20.5406 57.3105C22.1195 58.2187 23.6768 59.1156 25.2567 60.0255C26.0283 60.4699 26.8053 60.9174 27.5928 61.3708C27.8492 60.9258 28.1033 60.4905 28.3539 60.061C28.9439 59.0499 29.5151 58.071 30.0555 57.0748C30.394 56.4478 30.7477 56.2672 31.4474 56.5331C32.008 56.7455 32.5952 56.889 33.2233 57.0425C33.4999 57.1101 33.7845 57.1796 34.0781 57.2578V63.1789H42.1033V57.2704C42.3957 57.187 42.6796 57.1016 42.9579 57.0178C43.6848 56.799 44.374 56.5916 45.0777 56.4628C45.351 56.4127 45.8275 56.7262 45.9981 57.0045C46.6264 58.0132 47.217 59.0461 47.843 60.1407C48.0715 60.5402 48.3046 60.9479 48.5461 61.3657C50.3318 60.3399 52.0934 59.3297 53.8576 58.3181C54.4397 57.9843 55.0221 57.6503 55.6057 57.3155C55.2437 56.6815 54.8858 56.0543 54.5308 55.4324C53.9269 54.3741 53.3316 53.331 52.7392 52.2948C53.334 51.7364 53.9037 51.201 54.485 50.6546C54.7836 50.374 55.0853 50.0905 55.3951 49.7994C56.9499 50.6872 58.6077 51.6327 60.3105 52.6032C60.9625 51.4714 61.6091 50.3477 62.2588 49.219C62.9536 48.0118 63.6517 46.7988 64.3632 45.5636C63.2653 44.9207 62.2049 44.3008 61.1701 43.6958C60.6024 43.3639 60.0423 43.0364 59.4879 42.7122C59.477 42.6555 59.4637 42.6075 59.4522 42.566C59.4321 42.4936 59.4175 42.4408 59.4302 42.3962C59.5282 42.0768 59.5994 41.7205 59.6707 41.3639C59.8368 40.5331 60.0033 39.7003 60.5086 39.3265V39.324ZM38.0882 53.2528C28.0567 53.2528 19.9237 45.1197 19.9237 35.0882C19.9237 25.0567 28.0567 16.9237 38.0882 16.9237C48.1197 16.9237 56.2528 25.0567 56.2528 35.0882C56.2528 45.1197 48.1197 53.2528 38.0882 53.2528Z" stroke="white"/>
<path d="M52.4233 28.653H41.0576V26.9552H50.3743V22.3457H25.7871V26.9552H35.1039V28.653H23.2266V40.8187H35.1039V43.2188H25.7871V47.8282H50.3743V43.2188H41.0576V40.8187H52.9524V28.653H52.4233ZM28.3802 35.9359V33.3277H35.1039V35.9359H28.3802ZM41.0576 35.9359V33.3277H47.7962V35.9359H41.0576Z" fill="#149244"/>
<path d="M52.4233 28.653H41.0576V26.9552H50.3743V22.3457H25.7871V26.9552H35.1039V28.653H23.2266V40.8187H35.1039V43.2188H25.7871V47.8282H50.3743V43.2188H41.0576V40.8187H52.9524V28.653H52.4233ZM28.3802 35.9359V33.3277H35.1039V35.9359H28.3802ZM41.0576 35.9359V33.3277H47.7962V35.9359H41.0576Z" stroke="white"/>
<path d="M78.5384 31.8436H89.7303V34.1955H78.5384V31.8436ZM77.4435 26.0246H91.0076V35.0065H88.3921V28.3563H79.9374V35.0065H77.4435V26.0246ZM81.4175 15.8263L84.1952 16.7386C82.8773 19.2527 81.1539 21.9696 79.7752 23.7335L77.5855 22.8617C78.9439 21.0167 80.5456 18.0971 81.4175 15.8263ZM86.2835 19.4555L88.2096 18.0362C90.2169 19.6582 92.6499 22.0102 93.7042 23.7538L91.5753 25.3758C90.6224 23.6727 88.311 21.1992 86.2835 19.4555ZM75.2944 21.7263C79.3899 21.6249 85.6752 21.3816 91.2509 21.1383L91.1292 23.4902C85.513 23.7944 79.4305 24.0377 75.4363 24.1999L75.2944 21.7263ZM99.584 19.5163H116.351V29.6944H113.797V21.9088H102.037V29.7958H99.584V19.5163ZM100.861 26.2679H115.216V28.6604H100.861V26.2679ZM106.619 15.9885H109.194V35.0268H106.619V15.9885ZM122.758 17.6713H140.56V19.7393H122.758V17.6713ZM130.28 15.9479H132.795V18.7053H130.28V15.9479ZM123.569 25.8624H138.391V27.8697H125.942V35.0471H123.569V25.8624ZM137.478 25.8624H139.931V32.4721C139.931 33.5873 139.708 34.2361 138.918 34.601C138.147 34.966 137.073 35.0065 135.613 35.0065C135.532 34.3172 135.187 33.344 134.863 32.7154C135.775 32.756 136.809 32.756 137.093 32.7357C137.397 32.7357 137.478 32.6546 137.478 32.4113V25.8624ZM127.766 28.8023H129.875V34.2766H127.766V28.8023ZM128.821 28.8023H135.552V33.344H128.821V31.7219H133.403V30.4243H128.821V28.8023ZM128.395 22.1521V23.3686H134.782V22.1521H128.395ZM126.084 20.5301H137.235V25.0109H126.084V20.5301ZM147.291 18.0971H163.552V20.6315H147.291V18.0971ZM146.156 31.1745H164.708V33.6278H146.156V31.1745ZM153.921 19.4758H156.699V32.1477H153.921V19.4758Z" fill="#595959"/>
<path d="M78.862 42.8842L79.6675 42.1753C80.8757 42.7392 82.3579 43.6414 83.0828 44.318L82.229 45.1074C81.5363 44.4308 80.0702 43.4803 78.862 42.8842ZM86.3048 40.6932H86.5465L86.7559 40.6288L87.5453 41.1121C85.451 44.8657 80.6824 47.1211 76.4294 48.0555C76.3166 47.7494 76.0749 47.25 75.8494 46.9923C79.9091 46.2351 84.5488 44.0602 86.3048 40.8865V40.6932ZM80.9241 40.6932H86.6109V41.7082H80.9241V40.6932ZM82.1162 39.3078L83.4695 39.5977C81.9873 41.3054 79.7964 42.9003 76.7999 44.0924C76.6227 43.8025 76.2522 43.3997 75.9783 43.1903C78.8781 42.1753 81.0046 40.661 82.1162 39.3078ZM80.9241 48.7966L81.8101 48.1039C83.0828 48.7644 84.6294 49.7793 85.4027 50.5526L84.4522 51.3259C83.7272 50.5687 82.1968 49.4893 80.9241 48.7966ZM88.6569 46.3317H88.8986L89.1241 46.2673L89.9135 46.7023C87.8836 51.4064 82.8573 53.4202 77.5893 54.1935C77.5087 53.8551 77.2671 53.3557 77.0738 53.0819C82.0518 52.4858 86.917 50.5687 88.6569 46.509V46.3317ZM83.4211 46.3317H88.9791V47.3628H83.4211V46.3317ZM84.7261 44.8174L86.0632 45.1235C84.4361 47.0245 81.8907 48.7805 78.3626 50.021C78.2176 49.7471 77.8632 49.3121 77.6054 49.0866C81.0207 48.0233 83.4695 46.3479 84.7261 44.8174ZM94.4888 41.241H100.401V42.3848H94.4888V41.241ZM100.53 43.0131H108.182V44.173H100.53V43.0131ZM96.873 41.692H98.0491V49.7632H96.873V41.692ZM107.618 43.0131H108.811C108.811 43.0131 108.811 43.448 108.794 43.6253C108.537 50.2787 108.311 52.6147 107.699 53.3396C107.345 53.7907 107.006 53.9196 106.459 53.984C105.927 54.0324 104.993 54.0162 104.074 53.9518C104.042 53.6135 103.913 53.098 103.704 52.7597C104.686 52.8563 105.605 52.8563 105.959 52.8563C106.281 52.8563 106.459 52.808 106.636 52.6147C107.135 52.0669 107.393 49.6826 107.618 43.2708V43.0131ZM94.2632 49.9404C95.8581 49.5699 98.3068 48.9094 100.643 48.2811L100.804 49.4249C98.6129 50.0532 96.277 50.7137 94.5693 51.1809L94.2632 49.9404ZM103.269 39.5977H104.493C104.461 45.8162 104.413 51.3903 99.4829 54.1612C99.3057 53.8713 98.9029 53.4363 98.6129 53.2107C103.333 50.6976 103.237 45.4779 103.269 39.5977ZM115.851 39.3239L117.107 39.6138C116.527 40.951 115.77 42.5137 115.126 43.5286L114.095 43.2225C114.707 42.1915 115.464 40.4999 115.851 39.3239ZM113.144 42.7392C114.836 42.6909 117.397 42.5781 119.927 42.4653L119.91 43.5447C117.51 43.6897 115.013 43.8186 113.257 43.9152L113.144 42.7392ZM114.127 45.0752H119.234V46.1062H115.255V54.129H114.127V45.0752ZM118.686 45.0752H119.878V52.7597C119.878 53.3718 119.749 53.7102 119.314 53.9035C118.863 54.0968 118.154 54.1129 117.14 54.1129C117.075 53.7907 116.898 53.3074 116.737 53.0013C117.494 53.0335 118.187 53.0174 118.412 53.0013C118.622 53.0013 118.686 52.953 118.686 52.7436V45.0752ZM114.659 47.4756H119.314V48.4261H114.659V47.4756ZM114.659 49.8921H119.314V50.8587H114.659V49.8921ZM121.393 39.3561H122.585V44.6885C122.585 45.204 122.714 45.3168 123.455 45.3168C123.793 45.3168 125.549 45.3168 126.016 45.3168C126.644 45.3168 126.757 45.0429 126.822 43.448C127.079 43.6575 127.563 43.8347 127.917 43.9152C127.772 45.8807 127.418 46.4123 126.113 46.4123C125.775 46.4123 123.664 46.4123 123.342 46.4123C121.795 46.4123 121.393 46.0418 121.393 44.7046V39.3561ZM126.322 40.5482L127.128 41.4343C125.758 42.0787 123.825 42.707 122.166 43.1742C122.101 42.9164 121.94 42.562 121.795 42.3203C123.39 41.8209 125.227 41.1121 126.322 40.5482ZM121.393 46.8473H122.585V52.2925C122.585 52.8402 122.73 52.9369 123.503 52.9369C123.841 52.9369 125.662 52.9369 126.145 52.9369C126.838 52.9369 126.934 52.6308 127.015 50.8103C127.289 51.0037 127.772 51.197 128.11 51.2614C127.949 53.4363 127.595 54.0162 126.242 54.0162C125.887 54.0162 123.712 54.0162 123.374 54.0162C121.811 54.0162 121.393 53.6457 121.393 52.3086V46.8473ZM126.516 47.7333L127.321 48.6355C125.968 49.4088 123.906 50.0693 122.166 50.5365C122.101 50.2948 121.924 49.9082 121.795 49.6665C123.471 49.1832 125.42 48.4422 126.516 47.7333ZM117.864 40.8543L118.863 40.4516C119.717 41.5793 120.619 43.0614 120.99 44.0602L119.927 44.5274C119.588 43.5447 118.718 41.9981 117.864 40.8543ZM138.743 39.3239H139.967V52.7919C139.967 53.5491 139.758 53.839 139.259 54.0162C138.743 54.1773 137.905 54.1935 136.552 54.1935C136.488 53.9035 136.294 53.4524 136.133 53.1785C137.1 53.2107 138.066 53.1946 138.356 53.1946C138.646 53.1785 138.743 53.0819 138.743 52.7919V39.3239ZM132.444 40.6127H146.428V41.6115H132.444V40.6127ZM135.279 43.4158V44.5757H143.592V43.4158H135.279ZM134.136 42.5781H144.817V45.4296H134.136V42.5781ZM133.668 46.5573H145.058V52.4214H143.85V47.4594H133.668V46.5573ZM132.138 48.571H146.734V49.5376H132.138V48.571ZM133.507 50.762H144.478V51.6964H133.507V50.762ZM151.132 40.1294H156.625V41.1765H151.132V40.1294ZM157.35 48.3616H164.342V49.4088H157.35V48.3616ZM150.955 44.9946H157.012V46.074H150.955V44.9946ZM153.774 45.4296H154.934V52.7436C154.934 53.3718 154.821 53.694 154.386 53.9035C153.983 54.0807 153.355 54.0968 152.356 54.0968C152.324 53.7907 152.163 53.2913 152.002 52.9691C152.694 52.9852 153.339 52.9852 153.532 52.9852C153.709 52.9691 153.774 52.9208 153.774 52.7436V45.4296ZM163.923 48.3616H165.164C165.164 48.3616 165.148 48.716 165.115 48.8932C164.809 51.9219 164.519 53.1463 164.052 53.6296C163.762 53.9196 163.472 54.0162 163.037 54.0485C162.667 54.0807 161.958 54.0807 161.233 54.0324C161.201 53.7102 161.088 53.2269 160.911 52.9047C161.603 52.9691 162.248 52.9852 162.505 52.9852C162.763 52.9852 162.908 52.9691 163.053 52.8241C163.392 52.5019 163.682 51.3742 163.923 48.5549V48.3616ZM160.363 46.7667H161.571C161.265 50.021 160.476 52.7436 156.835 54.1612C156.69 53.8713 156.368 53.4363 156.11 53.2269C159.461 51.9864 160.089 49.5538 160.363 46.7667ZM151.696 42.8197L152.453 42.0465C153.806 42.6103 155.481 43.5608 156.319 44.3019L155.514 45.1879C154.708 44.4469 153.065 43.4319 151.696 42.8197ZM156.69 44.9946H156.867L157.044 44.9463L157.785 45.204C157.447 46.5573 156.964 48.1039 156.464 49.1027L155.61 48.6838C156.029 47.7978 156.432 46.364 156.69 45.204V44.9946ZM163.15 41.5148L164.39 41.7243C163.311 44.6402 160.894 46.2512 157.85 47.2017C157.705 46.9439 157.334 46.4445 157.092 46.1868C160.025 45.4457 162.28 44.0119 163.15 41.5148ZM159.702 39.3239L160.846 39.63C160.089 41.3537 158.848 42.9647 157.608 43.9958C157.399 43.7864 156.915 43.448 156.609 43.2869C157.882 42.3364 159.058 40.8704 159.702 39.3239ZM159.412 41.8531C160.572 43.9958 162.973 45.6068 165.84 46.2351C165.582 46.4767 165.228 46.9439 165.067 47.2661C162.119 46.4767 159.702 44.6724 158.414 42.1915L159.412 41.8531ZM153.629 45.349L154.45 45.6551C153.838 47.7817 152.678 50.2787 151.422 51.5353C151.293 51.197 151.003 50.6976 150.793 50.4076C151.953 49.3121 153.097 47.2017 153.629 45.349ZM159.348 41.0315H165.502V42.0626H158.848L159.348 41.0315ZM156.335 40.1294H156.593L156.786 40.081L157.576 40.5805C156.835 41.7082 155.578 42.9325 154.467 43.6736C154.257 43.4803 153.887 43.2225 153.645 43.0775C154.676 42.4009 155.804 41.2249 156.335 40.3549V40.1294ZM172.494 45.1074H181.854V46.2351H172.494V45.1074ZM172.494 48.6033H181.854V49.731H172.494V48.6033ZM172.494 52.1314H181.854V53.2591H172.494V52.1314ZM171.672 41.5309H182.788V54.0807H181.531V42.6909H172.896V54.1612H171.672V41.5309ZM176.392 39.3078L177.794 39.485C177.44 40.4516 177.021 41.4987 176.666 42.1915L175.587 41.982C175.877 41.2249 176.231 40.0971 176.392 39.3078ZM189.023 49.8599H196.369V50.7781H189.023V49.8599ZM188.588 42.0948H196.627V43.0292H188.588V42.0948ZM192.084 40.6288H193.195V52.4858H192.084V40.6288ZM188.572 52.518C190.537 52.3408 193.55 52.0508 196.433 51.7447L196.449 52.6952C193.711 53.0174 190.795 53.3557 188.749 53.5652L188.572 52.518ZM190.07 46.8473V48.0394H195.289V46.8473H190.07ZM190.07 44.8818V46.0418H195.289V44.8818H190.07ZM189.055 44.0441H196.321V48.8771H189.055V44.0441ZM195.741 39.485L196.353 40.4193C194.452 40.8382 191.455 41.1121 189.039 41.1926C188.99 40.9349 188.878 40.5321 188.749 40.2905C191.149 40.1616 194.081 39.8716 195.741 39.485ZM196.514 43.0936H202.33V44.2213H196.514V43.0936ZM201.862 43.0936H203.022C203.022 43.0936 203.006 43.5447 203.006 43.7058C202.829 50.5043 202.668 52.7597 202.136 53.4524C201.846 53.8713 201.524 54.0162 201.041 54.0646C200.59 54.1129 199.816 54.1129 199.075 54.0646C199.043 53.7263 198.914 53.2269 198.721 52.9047C199.51 52.9691 200.219 52.9852 200.541 52.9852C200.799 52.9852 200.96 52.9369 201.105 52.7274C201.508 52.228 201.685 49.9082 201.862 43.3836V43.0936ZM198.463 39.5333H199.623C199.607 45.9451 199.591 51.3581 195.741 54.2418C195.547 53.9518 195.128 53.5652 194.838 53.3718C198.528 50.7298 198.447 45.6229 198.463 39.5333ZM214.332 39.3078L215.524 39.4366C215.298 40.1455 215.089 40.8865 214.895 41.386L213.961 41.2571C214.106 40.6932 214.267 39.8555 214.332 39.3078ZM213.59 43.738V45.0752H216.184V43.738H213.59ZM213.59 41.5793V42.9003H216.184V41.5793H213.59ZM212.608 40.6771H217.199V45.9773H212.608V40.6771ZM214.348 45.9612H215.427V47.8783H214.348V45.9612ZM212.35 47.3628H217.618V48.3455H212.35V47.3628ZM214.025 49.4732H216.732V50.3915H213.848L214.025 49.4732ZM216.184 49.4732H217.215C217.215 49.4732 217.199 49.7632 217.183 49.9243C217.006 52.4052 216.845 53.388 216.506 53.7585C216.297 54.0001 216.071 54.0807 215.717 54.1129C215.443 54.129 214.928 54.1451 214.396 54.1129C214.38 53.8229 214.283 53.4363 214.138 53.1946C214.638 53.2269 215.073 53.243 215.266 53.243C215.443 53.243 215.572 53.2269 215.685 53.098C215.878 52.8724 216.039 51.9864 216.184 49.6343V49.4732ZM213.719 48.0072H214.75C214.638 51.0198 214.251 53.0174 212.318 54.1773C212.205 53.9357 211.899 53.5813 211.657 53.4041C213.349 52.4214 213.639 50.6815 213.719 48.0072ZM218.649 39.34L219.696 39.4689C219.358 42.4492 218.762 45.2363 217.65 47.105C217.489 46.9117 217.086 46.509 216.845 46.3317C217.876 44.6563 218.375 42.0465 218.649 39.34ZM218.713 42.6586H222.274V43.7702H218.391L218.713 42.6586ZM218.826 43.7864C219.342 47.83 220.405 51.4547 222.467 53.1946C222.209 53.4041 221.839 53.7907 221.646 54.1129C219.551 52.0991 218.536 48.2811 218.005 43.9152L218.826 43.7864ZM220.727 42.9647L221.629 43.3836C221.194 48.1522 220.051 52.2441 217.602 54.1612C217.425 53.9035 217.07 53.5168 216.78 53.3074C219.229 51.5675 220.325 47.685 220.727 42.9647ZM209.692 39.3722L210.691 39.7588C210.159 40.9027 209.466 42.3203 208.902 43.1903L208.129 42.8359C208.661 41.9337 209.337 40.4193 209.692 39.3722ZM211.303 41.2571L212.269 41.6759C211.319 43.4964 209.95 45.7679 208.87 47.1695L208.097 46.7828C209.176 45.3813 210.546 42.9809 211.303 41.2571ZM207.324 42.7231L207.936 41.9659C208.774 42.7231 209.756 43.7864 210.159 44.4952L209.515 45.3813C209.112 44.6241 208.161 43.4964 207.324 42.7231ZM210.755 44.9785L211.609 44.6724C212.108 45.6873 212.576 47.0084 212.688 47.83L211.77 48.2005C211.673 47.3467 211.238 46.0095 210.755 44.9785ZM207.324 46.5573C208.548 46.5251 210.272 46.4767 212.044 46.3962L212.028 47.3467C210.336 47.4594 208.709 47.54 207.388 47.6206L207.324 46.5573ZM210.868 48.7644L211.69 48.5066C212.092 49.4732 212.463 50.7459 212.576 51.5675L211.706 51.8575C211.593 51.0359 211.222 49.731 210.868 48.7644ZM208.097 48.5549L209.047 48.7321C208.87 50.2143 208.532 51.7769 208.097 52.808C207.904 52.6791 207.469 52.4858 207.211 52.4052C207.678 51.4064 207.936 49.9565 208.097 48.5549ZM209.563 47.0245H210.578V54.1612H209.563V47.0245ZM228.428 41.9337H238.545V41.0315H227.332V40.226H239.673V42.7553H228.428V41.9337ZM228.057 41.9337H229.201C228.895 42.8681 228.525 43.9313 228.235 44.6402L227.123 44.5596C227.445 43.8347 227.8 42.8036 228.057 41.9337ZM227.993 43.6091H239.93V44.4308H227.735L227.993 43.6091ZM239.544 43.6091H240.688C240.688 43.6091 240.672 43.8669 240.655 44.0119C240.559 44.9946 240.446 45.4779 240.188 45.7357C239.995 45.929 239.721 46.0095 239.399 46.0257C239.125 46.0418 238.561 46.0418 237.981 45.9934C237.965 45.7679 237.868 45.4135 237.756 45.1879C238.255 45.2363 238.69 45.2524 238.867 45.2524C239.061 45.2524 239.157 45.2363 239.238 45.1557C239.367 45.0268 239.447 44.6563 239.544 43.7702V43.6091ZM231.295 39.34H232.407V42.2398C232.407 44.3663 231.747 46.0579 227.075 46.96C226.978 46.6862 226.72 46.2351 226.511 46.0257C230.764 45.2201 231.295 43.8669 231.295 42.2076V39.34ZM234.904 39.34H236.048V45.639H234.904V39.34ZM229.701 48.2005V49.1993H237.804V48.2005H229.701ZM229.701 49.9565V50.9714H237.804V49.9565H229.701ZM229.701 46.4606V47.4433H237.804V46.4606H229.701ZM228.525 45.6712H239.012V51.7447H228.525V45.6712ZM234.969 52.5502L235.919 51.9219C237.723 52.4052 239.689 53.0496 240.865 53.5329L239.56 54.1773C238.529 53.694 236.757 53.0819 234.969 52.5502ZM231.247 51.9058L232.327 52.3891C231.022 53.1141 228.96 53.8068 227.348 54.2096C227.155 53.9679 226.736 53.5168 226.462 53.3074C228.138 52.9852 230.087 52.4858 231.247 51.9058ZM250.064 47.5722H259.842V48.5549H250.064V47.5722ZM251.336 50.1176L251.981 49.3765C252.819 49.8599 253.898 50.5848 254.43 51.0842L253.753 51.9219C253.237 51.4064 252.174 50.6331 251.336 50.1176ZM256.556 46.6217L257.152 46.0418C257.748 46.364 258.489 46.8473 258.86 47.2178L258.231 47.8461C257.877 47.4917 257.152 46.96 256.556 46.6217ZM251.256 48.0233H252.351C252.174 50.5204 251.691 52.7919 249.886 54.1129C249.725 53.8713 249.403 53.5007 249.145 53.3235C250.74 52.1958 251.127 50.1337 251.256 48.0233ZM254.156 39.34H255.235C255.154 47.3628 256.331 53.1302 258.521 53.1302C258.989 53.1302 259.15 52.7597 259.23 51.2936C259.456 51.5192 259.826 51.7286 260.084 51.8253C259.875 53.6457 259.52 54.1773 258.441 54.1773C255.203 54.1612 254.188 47.5722 254.156 39.34ZM257.764 48.8127L258.795 49.1993C257.748 51.4225 255.767 53.1141 253.286 54.1451C253.141 53.9357 252.835 53.5652 252.609 53.3718C255.026 52.4375 256.862 50.8103 257.764 48.8127ZM255.316 42.1431L255.815 41.4826C256.524 41.9659 257.329 42.707 257.7 43.2225L257.184 43.9797C256.814 43.448 256.008 42.6748 255.316 42.1431ZM258.328 44.0924L259.069 43.8025C259.52 44.5435 259.955 45.5101 260.084 46.1223L259.295 46.4928C259.15 45.8646 258.747 44.8496 258.328 44.0924ZM255.525 45.2201C256.524 45.1557 257.861 45.0752 259.279 44.9785V45.8162C257.99 45.9451 256.765 46.0579 255.702 46.1545L255.525 45.2201ZM257.184 39.485L258.119 39.8555C257.668 40.7577 257.12 41.8048 256.669 42.4653L255.976 42.1431C256.379 41.4343 256.91 40.2744 257.184 39.485ZM258.505 41.096L259.408 41.5309C258.586 42.9164 257.49 44.6402 256.62 45.7357L255.944 45.349C256.798 44.2374 257.893 42.4009 258.505 41.096ZM249.854 42.1431L250.37 41.4826C251.063 41.9659 251.884 42.707 252.239 43.2225L251.723 43.9797C251.352 43.448 250.547 42.6748 249.854 42.1431ZM252.657 44.1891L253.398 43.9152C253.817 44.6563 254.204 45.639 254.301 46.2512L253.511 46.5895C253.398 45.9612 253.044 44.9624 252.657 44.1891ZM249.919 45.3974C250.934 45.349 252.255 45.2524 253.688 45.1396V46.0095C252.4 46.1384 251.159 46.2512 250.096 46.3479L249.919 45.3974ZM251.739 39.485L252.674 39.8716C252.206 40.7577 251.659 41.8209 251.224 42.4814L250.531 42.1753C250.934 41.4504 251.449 40.2744 251.739 39.485ZM253.06 41.096L253.946 41.5309C253.108 42.9647 251.981 44.753 251.063 45.8646L250.37 45.494C251.272 44.3502 252.416 42.4492 253.06 41.096ZM245.279 42.8197H250.16V43.9475H245.279V42.8197ZM247.325 39.3239H248.42V54.129H247.325V39.3239ZM247.277 43.4964L248.002 43.7219C247.551 46.2673 246.6 49.441 245.537 51.052C245.408 50.762 245.134 50.3109 244.941 50.0532C245.923 48.6033 246.89 45.784 247.277 43.4964ZM248.34 44.5596C248.662 44.9946 249.919 47.0084 250.176 47.4756L249.564 48.3616C249.242 47.5561 248.227 45.6551 247.84 45.0268L248.34 44.5596Z" fill="#595959"/>
</svg>
